<svg xmlns="http://www.w3.org/2000/svg" viewBox="0 0 47 42"><defs><style>.cls-1{fill:#915d00;}</style></defs><title>Asset 1</title><g id="Layer_2" data-name="Layer 2"><g id="Layer_1-2" data-name="Layer 1"><path class="cls-1" d="M45.21,6.16,16.42,0A2.27,2.27,0,0,0,13.74,1.8l-.55,3.52,33.21,7L47,8.85A2.28,2.28,0,0,0,45.21,6.16Zm-12.1,7a2.29,2.29,0,0,0-2.81-1.59L24.82,13,11.94,10.31,10.53,17,1.67,19.48A2.3,2.3,0,0,0,.08,22.3l5,18a2.29,2.29,0,0,0,2.81,1.59L36.5,34a2.3,2.3,0,0,0,1.59-2.82L37.23,28l3.21.68A2.27,2.27,0,0,0,43.13,27l2-9.62L33.6,14.9ZM1.88,21.8a.43.43,0,0,1,.29-.52l7.92-2.2,18.68-5.2,2-.56h.11a.43.43,0,0,1,.41.31l.24.85.74,2.67L2.85,25.33Zm34.53.47.71-3.35a.93.93,0,0,1,1.1-.72l3.34.71A.94.94,0,0,1,42.28,20l-.71,3.35a.93.93,0,0,1-1.1.72l-3.34-.71A.94.94,0,0,1,36.41,22.28Zm-.11,9.36a.42.42,0,0,1,0,.32.41.41,0,0,1-.25.2l-28.62,8-.11,0a.43.43,0,0,1-.41-.31L4,29.31l29.43-8.19,1.79,6.48ZM12,32.36a.93.93,0,0,0-1.15-.65l-3.34.93a.94.94,0,0,0-.65,1.15l.93,3.35a.93.93,0,0,0,1.15.65l3.34-.93a.94.94,0,0,0,.65-1.15Z"/></g></g></svg>