<svg xmlns="http://www.w3.org/2000/svg" viewBox="0 0 51 51"><defs><style>.cls-1{fill:none;}</style></defs><title>faq-icon</title><g id="Layer_2" data-name="Layer 2"><g id="Layer_1-2" data-name="Layer 1"><path class="cls-1" d="M43.53,7.48A25.5,25.5,0,0,0,5.78,41.67a9.57,9.57,0,0,1-4,4.65,2.38,2.38,0,0,0,.68,4.48,12.16,12.16,0,0,0,1.81.14,16.5,16.5,0,0,0,9.17-3A25.5,25.5,0,0,0,43.53,7.48Zm-2,34A22.64,22.64,0,0,1,14,45a1.44,1.44,0,0,0-1.61.1,13.74,13.74,0,0,1-8,2.94A14.52,14.52,0,0,0,8.8,42a1.45,1.45,0,0,0-.25-1.54,22.62,22.62,0,1,1,32.94,1Zm0,0"/><path class="cls-1" d="M19.79,15.57a8.09,8.09,0,0,1,6-2.17A8.89,8.89,0,0,1,31.45,15a5.53,5.53,0,0,1,2.07,4.6,5.42,5.42,0,0,1-.86,3.14,14.72,14.72,0,0,1-2.5,2.67,14.85,14.85,0,0,0-2.1,2.23,3.78,3.78,0,0,0-.68,2.26H22.65a6.94,6.94,0,0,1,.41-2.49,6.07,6.07,0,0,1,1-1.76,21.78,21.78,0,0,1,1.51-1.59A10.72,10.72,0,0,0,27.1,22.4a3,3,0,0,0,.5-1.73q0-2.17-2.42-2.17-2.67,0-2.71,3.17l-4.88,0A8.3,8.3,0,0,1,19.79,15.57ZM27.1,33.46A3,3,0,0,1,28,35.67a3,3,0,0,1-.86,2.23,3,3,0,0,1-2.21.87,2.91,2.91,0,0,1-2.17-.87,3.33,3.33,0,0,1,0-4.44,2.93,2.93,0,0,1,2.19-.85A3,3,0,0,1,27.1,33.46Z"/></g></g></svg>