<svg xmlns="http://www.w3.org/2000/svg" viewBox="0 0 101.99 104"><defs><style>.cls-1{fill:#31c600;}</style></defs><title>glossary-icon</title><g id="Layer_2" data-name="Layer 2"><g id="Layer_1-2" data-name="Layer 1"><path class="cls-1" d="M70.84,67.89A40.14,40.14,0,0,0,81.75,40.44C81.75,18.18,63.44,0,40.88,0S0,18.18,0,40.44,18.31,80.88,40.88,80.88a41,41,0,0,0,24.48-8.05l30.4,30.07a3.67,3.67,0,0,0,2.59,1.1,3.57,3.57,0,0,0,2.59-1.1,3.69,3.69,0,0,0,0-5.18ZM7.4,40.44A33.48,33.48,0,1,1,40.88,73.56,33.33,33.33,0,0,1,7.4,40.44Zm0,0"/></g></g></svg>