<svg xmlns="http://www.w3.org/2000/svg" viewBox="0 0 127.02 114.01"><defs><style>.cls-1{fill:#348400;}</style></defs><title>insurance-icon</title><g id="Layer_2" data-name="Layer 2"><g id="Layer_1-2" data-name="Layer 1"><path class="cls-1" d="M60.71,15.21c-1.49,0-3.1-.18-3.54-.58a7.1,7.1,0,0,1-1.66-4.54C55.35,8,55.27.7,48,.07S36.54,3.57,30.14,6.83,10.3,16.62,2.09,18.37c-6.58,1.4,4,1.58,9.59,1.27C15.17,18,36.2,8.2,40.16,6.61c0,0-18.61,9.45-28.24,14.39-1.26.88-2.4,1.88-1.93,2.31.7.65,6.53,1.08,11.24.51,3-1.28,14-6.06,19.78-9.26,0,0-11.54,6.8-18.3,9.68-1.84,1-3.8,2.43-3.08,3.29,1,1.18,7.36.67,11.19-.51,2.64-1.61,9.21-5.65,11.05-7.07l.24-.2-.24.2c-1.13.9-6,4.76-10.16,7.51-1,1.19-2,2.73-1,3.5,1.51,1.18,6.55-.72,9.76-2.44a38.89,38.89,0,0,0,5.14-4.89,36.36,36.36,0,0,1-4.7,5.3c-1,1.41-2.31,3.71-1.35,4.57,1.19,1.06,5-.2,7.23-1.76a23.88,23.88,0,0,0,2.89-4.05,16.33,16.33,0,0,1-2.31,4.5c-.25.92-.27,2,.8,2.51,1.73.77,3.64-.3,5.36-2a30.48,30.48,0,0,0,1.8-2.92s-.74,2-1.5,3.48c-.11.67,0,1.41.66,1.71,1,.42,4.36-.74,6.47-4.5Z"/><path class="cls-1" d="M61.06,16.55h-.62a20,20,0,0,1-2.26-.16c-.23,0-.46-.07-.68-.12a1.91,1.91,0,0,1-1.2-.68A8,8,0,0,1,54.71,11c0-.11,0-.24,0-.37-.15-2.37-.57-8.65-7-9.22-.48,0-1-.06-1.43-.06a14.67,14.67,0,0,0-1.55.08C41,1.8,38.09,3.72,34.91,5.34l-.56.28-1.52.76c-.78.39-1.57.8-2.36,1.16L28,8.68s1.11-.44,2.46-1c.78-.33,1.54-.72,2.31-1.08,1.73-.82,3.41-1.73,5.13-2.59a21.16,21.16,0,0,1,5-1.83,16,16,0,0,1,3.34-.35c.45,0,.92,0,1.39.06,6.08.53,6.46,6.31,6.62,8.77,0,.15,0,.27,0,.38a9.36,9.36,0,0,0,1.28,4.46c.89,1.27,1.71,1.26,3.18,1.44.23,0,2.38.13,2.37.1s0-.32,0-.48"/><path class="cls-1" d="M124.93,18.42c-8.22-1.75-21.65-8.28-28.05-11.54S86.29-.52,79,.11s-7.35,8-7.51,10a7.1,7.1,0,0,1-1.66,4.54c-.45.41-2.13.55-3.65.58l-.34,14.87c2.09,4,5.67,5.3,6.67,4.86.7-.3.77-1,.66-1.71-.75-1.51-1.5-3.48-1.5-3.48a30.31,30.31,0,0,0,1.8,2.92c1.72,1.72,3.63,2.78,5.36,2,1.08-.48,1-1.59.8-2.51a16.35,16.35,0,0,1-2.31-4.5,24,24,0,0,0,2.89,4.05c2.27,1.56,6,2.82,7.23,1.76,1-.86-.38-3.16-1.35-4.57a36.35,36.35,0,0,1-4.7-5.3,38.83,38.83,0,0,0,5.14,4.89c3.21,1.72,8.25,3.61,9.76,2.44,1-.77,0-2.31-1-3.5-4.15-2.75-9-6.61-10.16-7.51l-.24-.19.24.19c1.84,1.42,8.42,5.46,11.05,7.07,3.83,1.18,10.21,1.69,11.19.51.71-.85-1.24-2.24-3.08-3.29C97.55,21.41,86,14.61,86,14.61c5.75,3.2,16.8,8,19.78,9.26,4.71.57,10.54.14,11.24-.51.47-.44-.67-1.43-1.93-2.31C105.47,16.1,86.86,6.66,86.86,6.66c4,1.59,25,11.4,28.48,13,5.58.31,16.17.13,9.59-1.27"/><path class="cls-1" d="M66,16.6h.62a20,20,0,0,0,2.26-.16c.23,0,.46-.07.69-.12a1.91,1.91,0,0,0,1.2-.68A8,8,0,0,0,72.3,11c0-.11,0-.24,0-.37.16-2.37.57-8.65,7-9.22.48,0,1-.06,1.43-.06a14.73,14.73,0,0,1,1.55.08c3.64.38,6.57,2.31,9.75,3.92l.56.28,1.52.76c.78.39,1.56.8,2.36,1.16L99,8.73s-1.11-.44-2.46-1C95.78,7.37,95,7,94.25,6.63,92.52,5.81,90.84,4.89,89.13,4a21.14,21.14,0,0,0-5-1.83,16,16,0,0,0-3.34-.35c-.45,0-.92,0-1.39.06-6.08.53-6.46,6.31-6.62,8.77l0,.38a9.37,9.37,0,0,1-1.28,4.46c-.89,1.27-1.71,1.26-3.18,1.44-.23,0-2.38.13-2.37.1s0-.32,0-.48"/><path class="cls-1" d="M60.16,8.66a.9.9,0,0,0-.32.72.76.76,0,0,0,.63.84h2.45a4.25,4.25,0,0,1-2.77-1.56"/><path class="cls-1" d="M66.79,8.66A4.26,4.26,0,0,1,64,10.21h2.45a.76.76,0,0,0,.63-.84.91.91,0,0,0-.32-.72"/><path class="cls-1" d="M67.27,6a3.79,3.79,0,1,1-3.79-3.82A3.81,3.81,0,0,1,67.27,6"/><path class="cls-1" d="M62,66.58l2.07-1.48.51-.36.19-8.32c-.82-.34-1.83-.72-3-1.14Z"/><path class="cls-1" d="M64,88.75c-.52-.54-1.11-1.11-1.71-1.68l.2,12.42c.42-.61.87-1.19,1.32-1.76Z"/><path class="cls-1" d="M64.17,83.62l.3-13.3c-.9.6-1.69,1.15-2.37,1.66l.15,9.71c.62.64,1.28,1.29,1.92,1.93"/><path class="cls-1" d="M63.3,50.32l1.61.75.94-41.54a4.23,4.23,0,0,1-4.74,0l.63,40.06,1.56.73"/><path class="cls-1" d="M63.63,102.19a10.33,10.33,0,0,0-1,1.67l.14,8.91.37,1.23.39-1.23L63.75,102l-.11.15"/><path class="cls-1" d="M62.53,99.49l.35-.49c-.34-.45-.69-.9-1-1.35s-.8-1-1.17-1.5c-2-2.79-1.16-3.94-.74-5.21a14.6,14.6,0,0,1,2.89-3.41c-.59-.57-1.2-1.14-1.79-1.67-.57.58-1.12,1.15-1.62,1.7C56,91.34,56.92,93.21,57.62,95c.55,1.43,2.66,3.28,4.43,5.18.15-.24.31-.48.48-.73"/><path class="cls-1" d="M59.88,68.13c.85-.64,1.84-1.34,2.84-2.06-1.91-1.36-3.91-2.77-5.46-3.94-2.73-2.07.8-4.54,2.77-5.61a22.46,22.46,0,0,1,2.35-1l-2.13-.79-2.56-.95c-.45.24-.9.49-1.34.74C53.82,56,51,58.41,52.27,61.67c1,2.54,3.61,3.95,5.79,5.31l1.82,1.15"/><path class="cls-1" d="M64.65,101.76c-.08-.16-.18-.32-.27-.48-.26.29-.5.58-.72.87a6.84,6.84,0,0,1,1.25,2.58,6.59,6.59,0,0,1-.59,3.45,1.5,1.5,0,0,0,.27-.23,1.81,1.81,0,0,0,.25-.36,5.13,5.13,0,0,0,.53-4,9.06,9.06,0,0,0-.73-1.85"/><path class="cls-1" d="M79,44a7.39,7.39,0,0,0-2.59-4.74c-.49-.32-.18-.76-.95-1.63a7.44,7.44,0,0,0-5.36-1.79c-2.56,0-3.29,2.35-3,2.47a.51.51,0,0,1,.29.36c-.62-.1-.44.68.82,1.63s3.54,2.07,4.2,1.87a1.22,1.22,0,0,1,1.29.53,1.61,1.61,0,0,1,.28.6,1.47,1.47,0,0,1,0,.57,3.62,3.62,0,0,1-1.66,2c-.93.69-1.92,1.26-2.86,1.93A40.49,40.49,0,0,1,64,50.66c1.59.74,3.28,1.55,4.87,2.39C70,52.65,71,52.23,72,51.82,76.49,50,79.26,46.6,79,44M70.2,37.87c-.41,0-.74-.18-.74-.4s.33-.4.74-.4.74.18.74.4-.33.4-.74.4"/><path class="cls-1" d="M66.72,69l-.09-.07-.94.6-1.87,1.24c2.94,2.07,4.56,3.67,4.64,5.74.07,1.66-2.21,4.13-4.75,6.68l.7.69L65.54,85l1.07-.93c1.75-1.47,4.87-4.86,5.11-7.52S69.35,71,66.72,69"/><path class="cls-1" d="M70.18,54.48c-4.62-2.67-10.71-5-13.06-6.65-.94-.67-1.93-1.24-2.86-1.93a3.62,3.62,0,0,1-1.66-2,1.46,1.46,0,0,1,0-.57,1.62,1.62,0,0,1,.28-.6,1.22,1.22,0,0,1,1.29-.53c.67.2,2.94-.92,4.2-1.87s1.44-1.73.82-1.64a.51.51,0,0,1,.29-.35c.26-.12-.48-2.43-3-2.47a7.44,7.44,0,0,0-5.36,1.79c-.77.88-.46,1.31-.95,1.63A7.38,7.38,0,0,0,47.57,44c-.28,2.59,2.49,6,6.93,7.8s10,3.62,12,4.7,5.5,3.54,2.77,5.61S62.45,67,59.82,69s-5.25,4.9-5,7.56,3.36,6,5.11,7.52,6.27,5.61,6.69,6.89,1.3,2.43-.74,5.21l-.43.57c-.81,1-1.65,2-2.4,3.13a14.74,14.74,0,0,0-2,4,10.07,10.07,0,0,0-.43,2.34,9.56,9.56,0,0,0,0,1.26,5.93,5.93,0,0,0,.65,2.35,4.6,4.6,0,0,0,.5.84c.06-.06-.53-1.83-.64-2.61a9.05,9.05,0,0,1,2-6.21C65,99.38,68.22,96.87,68.92,95s1.64-3.7-1.79-7.48S58,79.12,58.07,76.49,60.73,72,65.35,69c1.88-1.23,3.84-2.35,5.68-3.64s3.71-3.13,3.59-5.67-2.54-4.08-4.44-5.18M56.34,37.08c.41,0,.74.18.74.4s-.33.4-.74.4-.74-.18-.74-.4.33-.4.74-.4"/></g></g></svg>