<svg xmlns="http://www.w3.org/2000/svg" viewBox="0 0 299.2 162.45"><defs><style>.cls-1{fill:#11497c;}.cls-2{fill:#fff;}.cls-3,.cls-4,.cls-5{fill:none;stroke:#11497c;stroke-miterlimit:3.86;}.cls-3{stroke-width:0.54px;}.cls-4{stroke-width:1.58px;}.cls-5{stroke-width:0.47px;}</style></defs><title>logo-color</title><g id="Layer_2" data-name="Layer 2"><g id="Layer_1-2" data-name="Layer 1"><path class="cls-1" d="M73.26,56.6c-4.61,0-7.49-.55-11.48-.55-14,0-22.28,9.49-22.28,23.59-.07,12.58,7.63,22.49,20.15,22.49,10.73,0,15.68-6.46,15.68-9.56v-.41a15.9,15.9,0,0,1-11.9,4.75c-11.28,0-16.78-8.39-16.78-19.18,0-9.76,4.26-18.64,15.06-18.64,7.08,0,9.42,3.23,11.07,6.19H73l.27-8.66Z"/><path class="cls-1" d="M89.13,79.77h1.72c4.26,0,12,0,14.44-3.92-5.29.48-10.86.48-16.16.48V59.9h6.39c4.06,0,7.77.48,10.18,2.54l-.27-5.29h-24c1.51,2.34,1.51,5.91,1.51,9V92c0,3.09-.21,6.67-1.72,9h19.87c2.48,0,4.74-.21,6.6-.34l1.24-6.33c-3.23,2.89-7.63,3.92-11.89,3.92H89.13V79.77Z"/><path class="cls-1" d="M121.45,101c-2.2-5.16-2.06-12.1-2.06-17.6V65.74c0-.62.14-1,.41-1s.48.34.76.76l25.17,35.83h4.88c-.07-2.06-.14-4.12-.14-6.4V67.4a21.89,21.89,0,0,1,2.06-10.25h-7.15c1,1.79,1.65,4.13,1.65,8.8V90.22c0,.62,0,1.31-.48,1.31s-1-1-1.44-1.65L131.42,70.56c-2.13-3-6.53-10.38-8-12.31-.83-1.1-1.44-1.1-2.75-1.1h-6.95c2.06,2.06,2.2,5.78,2.2,9.14V80.94c0,6.05,0,14.44-2.41,20.08Z"/><path class="cls-1" d="M177.56,101C176,98.68,176,95.11,176,92V60.59h7.56c2.82,0,7-.48,8.18-3.44H157.21l-1.37,5a7.39,7.39,0,0,1,4.88-1.51h9.15V92c0,3.09,0,6.67-1.51,9Z"/><path class="cls-1" d="M203.68,79.77h1.72c4.26,0,12,0,14.44-3.92-5.29.48-10.87.48-16.16.48V59.9h6.4c4.05,0,7.77.48,10.18,2.54L220,57.15H196c1.51,2.34,1.51,5.91,1.51,9V92c0,3.09-.21,6.67-1.72,9h19.87c2.48,0,4.74-.21,6.6-.34l1.24-6.33c-3.23,2.89-7.63,3.92-11.9,3.92h-7.91V79.77Z"/><path class="cls-1" d="M246,78.12c5-2,10.18-6.12,10.18-12.45,0-5.36-3.64-9.21-10.66-9.21-5.36,0-10.87.69-16.64.69,1.51,2.34,1.51,5.91,1.51,9V91.6c0,3,.14,6.26-1.86,9.42h9.56c-1.51-2.34-1.51-5.91-1.51-9V79.63c4,.34,4.47,1.51,7.36,5.64l8.39,12c1.51,2.2,2.82,3.78,5.78,3.78h5.64A37.55,37.55,0,0,1,258,94.63l-12-16.5Zm-9.42-15.61c0-1.1.07-2.27.14-3.3H240c6.12.14,10,1,10,7.84,0,6.53-3.64,10.11-10.31,10.11a23.37,23.37,0,0,1-3.09-.21V62.51Z"/><path class="cls-1" d="M69.88,43.66A37,37,0,0,0,81.7,46.07c7.7,0,16-4.81,16-13.34,0-13.13-19.67-11.83-19.67-22.42,0-5.16,3.58-7.56,8.39-7.56,4.61,0,6.46.82,9.56,4.06V.41C92.5.41,89,0,85.42,0,78.13,0,71.59,3.92,71.59,11.9c0,12.72,19.67,11.28,19.67,22.83,0,5.5-3.92,8.6-9.15,8.6-7.22,0-10.18-4.06-12.24-6.94v7.29Z"/><path class="cls-1" d="M106.18,36c0,2.75.07,6.6-1.51,9h9.49c-1.58-2.41-1.79-6.26-1.79-9V3.16h5.5c7,0,8.6,4.12,8.6,9.49,0,10-6.6,10.86-11.9,11.55,1.31.83,2.34,1.51,6,1.51,8.18,0,13.06-5.84,13.06-13.75,0-6.74-4.06-11.55-12.79-11.55-5.36,0-10.66.69-16.16.69,1.51,2.34,1.51,5.91,1.51,9V36Z"/><path class="cls-1" d="M141.39,36c0,3.09,0,6.67-1.51,9h9.21c-1.51-2.34-1.51-5.91-1.51-9V10.11c0-3.09,0-6.67,1.51-9h-9.21c1.51,2.34,1.51,5.91,1.51,9V36Z"/><path class="cls-1" d="M164.07,45c-2.2-5.16-2.06-12.1-2.06-17.6V9.69c0-.62.14-1,.41-1s.48.34.76.76l25.17,35.82h4.88c-.07-2.06-.14-4.12-.14-6.4V11.35A21.92,21.92,0,0,1,195.15,1.1H188c1,1.79,1.65,4.13,1.65,8.8V34.17c0,.62,0,1.31-.48,1.31s-1-1-1.45-1.65L174,14.51c-2.13-3-6.53-10.38-8-12.31-.83-1.1-1.45-1.1-2.75-1.1h-6.95c2.06,2.06,2.2,5.78,2.2,9.14V24.89c0,6.05,0,14.44-2.41,20.08Z"/><path class="cls-1" d="M209.39,23.72h1.72c4.26,0,12,0,14.44-3.92-5.29.48-10.86.48-16.16.48V3.85h6.39c4.06,0,7.77.48,10.18,2.55l-.28-5.3h-24c1.51,2.34,1.51,5.91,1.51,9V36c0,3.09-.21,6.67-1.72,9h19.87c2.48,0,4.74-.21,6.6-.34l1.24-6.33c-3.23,2.89-7.63,3.92-11.89,3.92h-7.91V23.72Z"/><path class="cls-1" d="M263.34,80.91c0-1.33.91-1.79,2.63-2.65l1.26-.63V80c0,1.33-.7,2.58-2.1,2.58a1.58,1.58,0,0,1-1.79-1.65Zm6.26,2.58c-.72-1-.65-2.37-.65-3.75V74.63c0-1.51-1.42-1.89-3.07-1.89s-4.14.54-4.14,2.12a.76.76,0,0,0,.86.81c1.51,0,.61-2.23,2.81-2.23,1.37,0,1.82.88,1.82,2,0,1.51-.33,1.56-1.65,2.19-1.56.74-4.19,1.58-4.19,3.61a2.58,2.58,0,0,0,2.88,2.58A2.82,2.82,0,0,0,267,82.26a.15.15,0,0,1,.14-.07c.19,0,.16.58.37,1.44l2.09-.14Z"/><path class="cls-1" d="M271.46,70.25l-.09,2.86-1,.09V74h1v7.49c0,1.42.56,2.42,2.09,2.42a2.89,2.89,0,0,0,2-.91l.09-1a2.66,2.66,0,0,1-1.42.56c-.93,0-1-.65-1-1.42V74h.4c.74,0,1.72-.19,1.72-.67,0-.16-.12-.16-.21-.16h-1.91v-3.3l-1.63.44Z"/><path class="cls-1" d="M42.69,27.65a4.87,4.87,0,0,1-.42-2.51V16.37h2.11c.79,0,2-.13,2.28-1H37l-.38,1.38A2.06,2.06,0,0,1,38,16.37h2.55v8.76a4.87,4.87,0,0,1-.42,2.51Z"/><path class="cls-1" d="M55.28,20.67H49.61V17.92A5.1,5.1,0,0,1,50,15.41H47.44a5.1,5.1,0,0,1,.44,2.51v7.21a5.1,5.1,0,0,1-.44,2.51H50a5.1,5.1,0,0,1-.44-2.51v-3.7h5.68v3.7a5.1,5.1,0,0,1-.44,2.51h2.61A5.1,5.1,0,0,1,57,25.13V17.92a5.1,5.1,0,0,1,.44-2.51H54.84a5.1,5.1,0,0,1,.44,2.51v2.74Z"/><path class="cls-1" d="M61.29,21.72h.48c1.19,0,3.36,0,4-1.09-1.48.13-3,.13-4.51.13V16.18h1.78a4.36,4.36,0,0,1,2.84.71l-.08-1.48H59.14a4.87,4.87,0,0,1,.42,2.51v7.21a4.88,4.88,0,0,1-.48,2.51h5.54c.69,0,1.32-.06,1.84-.1l.35-1.77a4.92,4.92,0,0,1-3.32,1.09H61.29V21.72Z"/><path class="cls-2" d="M2.73,139.7a2.43,2.43,0,0,1-.79.29l-.6.12a.27.27,0,0,0,0,.37c1.17,0,1.85-.07,3-.07.8,0,1.81.09,2.45.09a7.54,7.54,0,0,0,3.71-.8H8.75a4.07,4.07,0,0,1-1.5.26,3.58,3.58,0,0,1-1.49-.26Zm18.8,0a7.94,7.94,0,0,0,4.12,1.08,7.53,7.53,0,0,0,3.94-1.08H28.28a5.39,5.39,0,0,1-2.41.54,5.16,5.16,0,0,1-2.36-.54Zm18.72,0a2.16,2.16,0,0,1-.73.29l-.6.12a.29.29,0,0,0,0,.37c.75,0,1.35-.07,2.16-.07s1.66,0,2.54.07a.29.29,0,0,0,0-.37L43,140a2.25,2.25,0,0,1-.92-.32Zm11.3,0c.39.52.62.87.76,1.08a6.81,6.81,0,0,0,.13-1.08Zm9.48,0a2.16,2.16,0,0,1-.79.26l-.88.14a.27.27,0,0,0,0,.37c1,0,2-.07,3.12-.07h2.1c1.85,0,3.69,0,5.7.07a4.38,4.38,0,0,0,.33-.77H68.55a8.92,8.92,0,0,1-2.31.17,7.71,7.71,0,0,1-2-.18Zm25.47,0a4.2,4.2,0,0,0,2.92,1,5.07,5.07,0,0,0,2.91-1Zm8.74,0a2.15,2.15,0,0,0,.34.4,3.91,3.91,0,0,0,2.34.63,4.48,4.48,0,0,0,2.88-1H99.38a1.92,1.92,0,0,1-.34,0l-.41,0Zm22.15,0a12.87,12.87,0,0,1-.52,3.67.94.94,0,0,1-.88.61c-.64,0-1.28-.35-1.79-.35s-.75.56-.75,1,.68.51.95.51c2.06,0,3.47-1.49,4.2-3.36a7.81,7.81,0,0,0,.43-2Zm12.68,0a7.93,7.93,0,0,0,4.12,1.08,7.52,7.52,0,0,0,3.94-1.08h-1.31a5.39,5.39,0,0,1-2.41.54,5.16,5.16,0,0,1-2.36-.54Zm18.84,0a2.27,2.27,0,0,1-.89.31l-.55.09a.29.29,0,0,0,0,.37c1.15,0,1.81-.07,2.7-.07s1.55,0,2.7.07a.29.29,0,0,0,0-.37l-.55-.09a2.16,2.16,0,0,1-.89-.32Zm10.95,0a2.18,2.18,0,0,1-.73.29l-.6.12a.29.29,0,0,0,0,.37c.75,0,1.35-.07,2.16-.07s1.66,0,2.54.07a.29.29,0,0,0,0-.37l-.66-.09a2.25,2.25,0,0,1-.92-.32Zm11.3,0c.39.52.62.87.76,1.08a6.84,6.84,0,0,0,.13-1.08Zm13.09,0a1.7,1.7,0,0,1-.83.29l-1,.12a.27.27,0,0,0,0,.37c.91,0,1.81-.07,3.09-.07,1.13,0,1.94,0,2.89.07a.27.27,0,0,0,0-.37l-.75-.09a2,2,0,0,1-.89-.3Zm26,0a9.5,9.5,0,0,0,4.64,1.08,13,13,0,0,0,3.56-.54,7.19,7.19,0,0,1,.77-.21,3,3,0,0,0,.18-.34h-2.11a4.89,4.89,0,0,1-2.33.54,6.5,6.5,0,0,1-2.66-.55Zm16.53,0a2.27,2.27,0,0,1-.89.31l-.64.09a.29.29,0,0,0,0,.37c1.24,0,1.9-.07,2.78-.07h1.81c2.39,0,4.37,0,5.72.07a4.89,4.89,0,0,0,.32-.77H234a8.05,8.05,0,0,1-2.07.17,8.52,8.52,0,0,1-1.93-.16Zm15.75,0a2.27,2.27,0,0,1-.89.31l-.55.09a.29.29,0,0,0,0,.37c1.15,0,1.81-.07,2.7-.07s1.55,0,2.7.07a.29.29,0,0,0,0-.37L246,140a2.18,2.18,0,0,1-.89-.32Zm10.95,0a2.18,2.18,0,0,1-.73.29l-.6.12a.29.29,0,0,0,0,.37c.75,0,1.35-.07,2.17-.07s1.66,0,2.54.07a.29.29,0,0,0,0-.37l-.66-.09a2.25,2.25,0,0,1-.92-.32Zm11.3,0c.39.52.62.87.76,1.08a6.83,6.83,0,0,0,.13-1.08Zm9.57,0a2.28,2.28,0,0,1-.89.31l-.55.09a.29.29,0,0,0,0,.37c1.15,0,1.81-.07,2.7-.07s1.55,0,2.7.07a.29.29,0,0,0,0-.37l-.55-.09a2.17,2.17,0,0,1-.89-.32Zm13.56,0a9.5,9.5,0,0,0,4.64,1.08,13,13,0,0,0,3.56-.54,7.19,7.19,0,0,1,.77-.21,3.29,3.29,0,0,0,.19-.34h-2.12a4.89,4.89,0,0,1-2.34.54,6.5,6.5,0,0,1-2.65-.55Z"/><path class="cls-2" d="M3.2,134.3v2.41a7.24,7.24,0,0,1-.31,2.82.8.8,0,0,1-.17.15h3a1.22,1.22,0,0,1-.48-.37,5,5,0,0,1-.4-2.61V134.3Zm7,0a4.57,4.57,0,0,1,.46,2.13,3.15,3.15,0,0,1-1.95,3.27h1.79a4,4,0,0,0,2-3.75,4.32,4.32,0,0,0-.3-1.65Zm7.78,0a7.61,7.61,0,0,0,3.52,5.39h2c-1.94-1-3-3.16-3.41-5.39Zm13.25,0c-.23,2.88-1.42,4.58-3,5.38h1.31a7.79,7.79,0,0,0,3.55-5.39Zm9.52,0v.36a22,22,0,0,1-.33,4.8.53.53,0,0,1-.2.23H42.1a.86.86,0,0,1-.19-.2c-.38-.7-.42-3.73-.42-4.83v-.36Zm6.32,0,3,3.63c.61.73,1.07,1.31,1.4,1.76h.89c.07-1.16.07-2.76.07-3.26V134.3h-.71v1.55c0,.65,0,1.12-.11,1.21-.36-.37-1.42-1.6-2.41-2.76Zm14.47,0v2.41a6.88,6.88,0,0,1-.33,2.8.76.76,0,0,1-.21.18h3.22a1.22,1.22,0,0,1-.62-.37,5.12,5.12,0,0,1-.38-2.57V134.3Zm6.35,0,.1.38a.35.35,0,0,0,.4,0c0-.1,0-.22,0-.36Zm17.86,0a4.39,4.39,0,0,0-.62,2.21,4.34,4.34,0,0,0,1.34,3.19h5.83a9,9,0,0,0,1.84-1.79c.24.34.69,1.23,1.08,1.79h3.38c-.84-.09-1.77-.56-2.82-2.18a10,10,0,0,1-.62-1c.53-.79,1-1.52,1.4-2.16h-.74c-.29.51-.61,1-1,1.6a17.53,17.53,0,0,0-1-1.6h-2a15.1,15.1,0,0,1,2,3,5,5,0,0,1-3.78,2.17A3.44,3.44,0,0,1,86.65,136,4,4,0,0,1,87,134.3Zm31.67,0v3.19c0,.48,0,1.31-.05,2.21H119c.08-.75.1-1.59.1-2.49V134.3Zm9.1,0a7.61,7.61,0,0,0,3.52,5.39h2c-1.94-1-3-3.16-3.42-5.39Zm13.25,0c-.23,2.88-1.42,4.58-3,5.38h1.31a7.79,7.79,0,0,0,3.55-5.39Zm9.57,0v2.37a7.52,7.52,0,0,1-.31,2.87.78.78,0,0,1-.15.15h2.59a1,1,0,0,1-.15-.16,7.5,7.5,0,0,1-.31-2.87V134.3Zm11,0v.36a22,22,0,0,1-.33,4.8.52.52,0,0,1-.2.23h1.85a.84.84,0,0,1-.19-.2c-.38-.7-.42-3.73-.42-4.83v-.36Zm6.32,0,3.05,3.63c.61.73,1.06,1.31,1.4,1.76h.89c.07-1.16.07-2.76.07-3.26V134.3h-.71v1.55c0,.65,0,1.12-.11,1.21-.36-.37-1.42-1.6-2.41-2.76Zm18,0v2.41a7.27,7.27,0,0,1-.31,2.84.73.73,0,0,1-.14.14h2.59a.53.53,0,0,1-.15-.13,7.33,7.33,0,0,1-.31-2.84V134.3Zm21.75,0a7.55,7.55,0,0,0,3.76,5.38h2.05a6.8,6.8,0,0,1-3.8-5.4Zm20.75,0v2.37a7.54,7.54,0,0,1-.31,2.87.8.8,0,0,1-.15.15H230a1.23,1.23,0,0,1-.72-.37,5.46,5.46,0,0,1-.35-2.57V134.3Zm15.75,0v2.37a7.54,7.54,0,0,1-.31,2.87.74.74,0,0,1-.15.15h2.59a1.07,1.07,0,0,1-.15-.16,7.54,7.54,0,0,1-.31-2.87V134.3Zm11,0v.36a21.87,21.87,0,0,1-.33,4.8.51.51,0,0,1-.2.23h1.85a.85.85,0,0,1-.19-.2c-.37-.7-.42-3.73-.42-4.83v-.36Zm6.32,0,3.05,3.63c.61.73,1.06,1.31,1.4,1.76h.89c.07-1.16.07-2.76.07-3.26V134.3H265v1.55c0,.65,0,1.12-.11,1.21-.36-.37-1.42-1.6-2.41-2.76Zm14.48,0v2.37a7.53,7.53,0,0,1-.31,2.87.79.79,0,0,1-.15.15h2.59a1,1,0,0,1-.15-.16,7.49,7.49,0,0,1-.31-2.87V134.3Zm9.34,0a7.36,7.36,0,0,0,3,4.89,7.13,7.13,0,0,0,.77.5h2.05a6.8,6.8,0,0,1-3.8-5.4ZM70.65,139.7a15.84,15.84,0,0,0,.6-2.37c0-.12-.29-.19-.4-.12-.61,1.54-1.24,2.22-2.31,2.49Zm30.16,0a5.28,5.28,0,0,0,.52-.51c0-.19,0-.33-.2-.35a3.11,3.11,0,0,1-1.76.86Zm118.56,0a10.7,10.7,0,0,0,.88-2.93.27.27,0,0,0-.4-.07,6.2,6.2,0,0,1-2.59,3Zm16.53,0a19.51,19.51,0,0,0,.61-2.4.34.34,0,0,0-.4-.09c-.66,1.6-1.2,2.24-2.15,2.5Zm61.13,0a10.77,10.77,0,0,0,.87-2.93.27.27,0,0,0-.4-.07,6.2,6.2,0,0,1-2.59,3Z"/><path class="cls-2" d="M3.2,128.91c0,.11,0,.24,0,.37v5H4.88V133c0-.51.07-.58,1.41-.58,2.21,0,3.37.8,3.93,1.87h2a3.75,3.75,0,0,0-2.68-2.23c-.2,0-.51-.14-.35-.37a3.52,3.52,0,0,0,2.19-2.8H9.63c0,2.23-1.25,3-3.75,3-.93,0-1,0-1-.65v-2.33Zm15.59,0A9.14,9.14,0,0,0,18,134.3h2.08a12.22,12.22,0,0,1-.21-2.25,9.81,9.81,0,0,1,.46-3.15Zm11.71,0a11.63,11.63,0,0,1,.8,4.33c0,.37,0,.72,0,1.05h1.88a9.51,9.51,0,0,0,.15-1.69,9.07,9.07,0,0,0-.77-3.71Zm10.28,0c0,.26,0,.55,0,.86v4.54h.71v-4.91c0-.18,0-.34,0-.48Zm1.8,0,1.62,2,2.89,3.44h2.18l-1.52-1.78L45.58,130l-.91-1.06Zm9.19,0c0,.74,0,1.42,0,1.84v3.56h.71v-3.56c0-.34,0-1,0-1.83Zm9.8,0v5.39h1.68v-.83c0-.72,0-.79.66-.79h1.24a6.48,6.48,0,0,1,2,.23c.29.12.46.37.6.84l.14.55h.49c0-.5-.06-1.2-.06-1.9,0-.86.07-1.8.07-2.26a.35.35,0,0,0-.4,0l-.22.89c-.15.58-.4.82-.62.89a8,8,0,0,1-2,.16H63.92c-.64,0-.66-.07-.66-.79v-2.35Zm25.51,0a3.72,3.72,0,0,0,1.73,2.52,8.86,8.86,0,0,0-3,2.88H87a6.08,6.08,0,0,1,2.28-2.47,12.6,12.6,0,0,1,2.59,2.48h2A15.81,15.81,0,0,0,90.69,131a4.13,4.13,0,0,0,1.95-2.11H91.37a3.35,3.35,0,0,1-1.15,1.75,4.45,4.45,0,0,1-1.73-1.75Zm30.37,0v5.39h1.68v-5.39Zm9.89,0a9.11,9.11,0,0,0-.78,5.39h2.08a12.3,12.3,0,0,1-.21-2.25,9.8,9.8,0,0,1,.46-3.15Zm11.71,0a11.62,11.62,0,0,1,.8,4.33c0,.37,0,.72,0,1.05h1.88a9.47,9.47,0,0,0,.15-1.69,9.07,9.07,0,0,0-.76-3.71Zm10.33,0v5.39h1.68v-5.39Zm11,0v5.39h.71v-5.39Zm1.8,0,1.62,2,2.89,3.44h2.19l-1.52-1.78L165.2,130l-.91-1.06Zm9.19,0c0,.74,0,1.42,0,1.84v3.56h.71v-3.56c0-.34,0-1,0-1.83Zm13.31,0v5.39h1.68v-5.39Zm22.54,0a8,8,0,0,0-.92,3.77,9.76,9.76,0,0,0,.13,1.61h2a11.39,11.39,0,0,1-.14-1.85,9.13,9.13,0,0,1,.64-3.54Zm20,0v5.39h1.68v-5.39Zm15.75,0v5.39h1.68v-5.39Zm11,0v5.39h.71v-4.91c0-.18,0-.34,0-.48Zm1.8,0,1.62,2,2.89,3.44h2.19L261,132.52,258.78,130l-.91-1.06Zm9.19,0c0,.74,0,1.42,0,1.84v3.56h.71v-3.56c0-.34,0-1,0-1.83Zm9.8,0v5.39h1.68v-5.39Zm10.13,0a8,8,0,0,0-.92,3.77,9.76,9.76,0,0,0,.13,1.61h2a11.4,11.4,0,0,1-.14-1.85,9.13,9.13,0,0,1,.64-3.54ZM96.6,134.3c.51-.81.89-1.47,1.12-1.85a21.41,21.41,0,0,1,1.39-2.21,1.54,1.54,0,0,1,.82-.42l1.24-.28a.39.39,0,0,0,0-.38c-.57,0-2.1.09-3.09.09H96.34a.26.26,0,0,0,0,.38l.79.17c.42.07.58.16.58.33a4.89,4.89,0,0,1-.49,1.51c-.38.84-.78,1.7-1.33,2.67Z"/><path class="cls-2" d="M4.88,128.91V126.5c0-.51.07-.68.15-.79s.64-.23,1.19-.23a3.09,3.09,0,0,1,3.4,3.33s0,.07,0,.1h1.79c0-.13,0-.27,0-.4a3.13,3.13,0,0,0-1.72-2.94,8.9,8.9,0,0,0-3.93-.63c-2.08,0-3.42.12-4.4.19a.27.27,0,0,0,0,.37l.77.14a1.13,1.13,0,0,1,.75.44c.11.13.29.52.31,2.82Zm15.46,0a5.15,5.15,0,0,1,5-3.74,5.42,5.42,0,0,1,5.14,3.74h2a7.11,7.11,0,0,0-6.83-4.27,7.57,7.57,0,0,0-6.9,4.27Zm21.15,0c0-.72,0-1,.22-1a11.3,11.3,0,0,1,.87,1h2.08a19.13,19.13,0,0,1-2.82-4,8.05,8.05,0,0,1-1.19.07c-.73,0-1.44,0-2.19-.07a.27.27,0,0,0,0,.37l.46.09a2.94,2.94,0,0,1,1.3.54c.54.51.59,1.19.6,3Zm11,0a11.58,11.58,0,0,1,.32-3c.09-.23.51-.42.93-.51l.6-.12a.29.29,0,0,0,0-.37c-.75,0-1.35.07-2.16.07s-1.66,0-2.54-.07a.29.29,0,0,0,0,.37l.66.09a1.58,1.58,0,0,1,1.1.51,10.28,10.28,0,0,1,.39,3Zm10.73,0v-1.36a7.71,7.71,0,0,1,.11-1.7c0-.21.2-.3.95-.3h1.21a9.54,9.54,0,0,1,2.16.19c1.22.28,1.57,1.19,1.81,2.24a.39.39,0,0,0,.4-.07c-.11-.89-.24-2.56-.33-3a29.06,29.06,0,0,1-3,.07H62.53c-.91,0-1.66,0-2.65-.07a.27.27,0,0,0,0,.37l.42.09a1.55,1.55,0,0,1,1,.54,6.64,6.64,0,0,1,.31,2.75v.21Zm25.23,0a2.4,2.4,0,0,1-.19-.91,1.88,1.88,0,0,1,1.59-2c1.1,0,1.59,1.07,1.59,2.05a3.27,3.27,0,0,1-.11.85h1.27a2.53,2.53,0,0,0,.11-.73A2.67,2.67,0,0,0,90,125.48a3,3,0,0,0-2.92,3.08,3.18,3.18,0,0,0,0,.36Zm30.65,0v-.16a7.5,7.5,0,0,1,.31-2.87,1.85,1.85,0,0,1,1-.49l.33-.07c.09-.14.09-.31,0-.38-.77,0-1.55.07-2.5.07s-1.61,0-2.83-.07a.28.28,0,0,0,0,.38l.66.12a1.54,1.54,0,0,1,1,.44,7.4,7.4,0,0,1,.31,2.87v.16Zm9.76,0a5.15,5.15,0,0,1,5-3.74,5.42,5.42,0,0,1,5.14,3.74h2a7.12,7.12,0,0,0-6.83-4.27,7.57,7.57,0,0,0-6.9,4.27Zm22.16,0v-.17a7.5,7.5,0,0,1,.31-2.87,1.66,1.66,0,0,1,1-.47l.55-.09c.09-.14.09-.3,0-.37-1,0-1.77.07-2.72.07s-1.61,0-2.7-.07a.27.27,0,0,0,0,.37l.53.09a1.66,1.66,0,0,1,1,.47,7.44,7.44,0,0,1,.31,2.87v.17Zm10.05,0c0-.72,0-1,.22-1a10.91,10.91,0,0,1,.87,1h2.08a19.14,19.14,0,0,1-2.82-4,8.06,8.06,0,0,1-1.19.07c-.73,0-1.44,0-2.19-.07a.27.27,0,0,0,0,.37l.46.09a3,3,0,0,1,1.3.54c.54.51.59,1.19.6,3Zm11,0a11.56,11.56,0,0,1,.32-3c.09-.23.51-.42.93-.51l.6-.12a.29.29,0,0,0,0-.37c-.75,0-1.35.07-2.17.07s-1.66,0-2.54-.07a.29.29,0,0,0,0,.37l.66.09a1.58,1.58,0,0,1,1.11.51,10.25,10.25,0,0,1,.38,3Zm14.24,0v-2.45c0-.89,0-.91.69-.91h1.52a3.81,3.81,0,0,1,2.63.63,3.18,3.18,0,0,1,.6,1.7.29.29,0,0,0,.4,0,13.87,13.87,0,0,1,.33-3.36c-.44.16-.62.35-.79.4a5.38,5.38,0,0,1-1.55.14h-8.57a6.59,6.59,0,0,1-1.59-.16.66.66,0,0,1-.37-.42,33.71,33.71,0,0,0-1.15,3.2.31.31,0,0,0,.4.16,6,6,0,0,1,1-1.66c.46-.51,1.41-.58,2.78-.58H184c.66,0,.68,0,.68.91v2.45Zm22.57,0a6,6,0,0,1,5.81-3.74c3.4,0,4.33,1.91,4.71,3.38.09,0,.33,0,.4,0-.18-1.31-.35-2.68-.35-3.33a1.91,1.91,0,0,1-.55-.07,18.16,18.16,0,0,0-3.89-.47,9.06,9.06,0,0,0-6,2,7.54,7.54,0,0,0-1.86,2.29Zm19.93,0v-.17a7.54,7.54,0,0,1,.31-2.87,1.66,1.66,0,0,1,1-.47l.51-.09c.09-.14.09-.3,0-.37-1,0-1.72.07-2.67.07s-1.61,0-2.81-.07a.27.27,0,0,0,0,.37l.64.09a1.66,1.66,0,0,1,1,.47,7.46,7.46,0,0,1,.31,2.87v.17Zm15.75,0v-.17a7.54,7.54,0,0,1,.31-2.87,1.66,1.66,0,0,1,1-.47l.55-.09c.09-.14.09-.3,0-.37-1,0-1.77.07-2.72.07s-1.61,0-2.7-.07a.27.27,0,0,0,0,.37l.53.09a1.66,1.66,0,0,1,1,.47,7.46,7.46,0,0,1,.31,2.87v.17Zm10.05,0c0-.72,0-1,.22-1a11.51,11.51,0,0,1,.88,1h2.08a19.15,19.15,0,0,1-2.82-4,8,8,0,0,1-1.19.07c-.73,0-1.44,0-2.19-.07a.26.26,0,0,0,0,.37l.46.09a3,3,0,0,1,1.3.54c.54.51.59,1.19.6,3Zm11,0a11.47,11.47,0,0,1,.32-3c.09-.23.51-.42.93-.51l.6-.12a.29.29,0,0,0,0-.37c-.75,0-1.35.07-2.17.07s-1.66,0-2.54-.07a.29.29,0,0,0,0,.37l.66.09a1.58,1.58,0,0,1,1.11.51,10.3,10.3,0,0,1,.39,3Zm10.72,0v-.17a7.49,7.49,0,0,1,.31-2.87,1.66,1.66,0,0,1,1-.47l.55-.09c.09-.14.09-.3,0-.37-1,0-1.77.07-2.72.07s-1.61,0-2.7-.07a.27.27,0,0,0,0,.37l.53.09a1.66,1.66,0,0,1,1,.47,7.45,7.45,0,0,1,.31,2.87v.17Zm10.16,0a6,6,0,0,1,5.81-3.74c3.4,0,4.33,1.91,4.71,3.38.09,0,.33,0,.4,0-.18-1.31-.35-2.68-.35-3.33a1.93,1.93,0,0,1-.55-.07,18.12,18.12,0,0,0-3.89-.47,9.06,9.06,0,0,0-6,2,7.57,7.57,0,0,0-1.86,2.29Z"/><path class="cls-1" d="M3.24,136.73a7.11,7.11,0,0,1-.31,2.8A1.71,1.71,0,0,1,2,140l-.6.12a.27.27,0,0,0,0,.37c1.17,0,1.85-.07,3-.07.8,0,1.81.09,2.45.09,3.87,0,5.74-1.71,5.74-4.52a3.75,3.75,0,0,0-3-3.85c-.2,0-.51-.14-.35-.37a3.43,3.43,0,0,0,2.21-3.17,3.11,3.11,0,0,0-1.72-2.92A8.92,8.92,0,0,0,5.83,125c-2.08,0-3.42.12-4.39.19a.27.27,0,0,0,0,.37l.77.14a1.13,1.13,0,0,1,.75.44c.11.14.31.56.31,3.17v7.39ZM4.92,133c0-.51.07-.58,1.41-.58,3.56,0,4.39,2.06,4.39,4A3.17,3.17,0,0,1,7.28,140a2.46,2.46,0,0,1-2-.62,5,5,0,0,1-.4-2.6V133Zm0-6.46c0-.51.07-.67.15-.79s.64-.23,1.19-.23a3.08,3.08,0,0,1,3.4,3.31c0,2.29-1.22,3.06-3.75,3.06-.93,0-1,0-1-.65v-4.7Zm20.81-1.85c-4.48,0-7.8,3.54-7.8,8.18a7.55,7.55,0,0,0,7.75,7.85c4.31,0,7.64-3.36,7.64-8.11,0-4.12-2.61-7.92-7.6-7.92Zm-.33.53c4.33,0,5.94,4.38,5.94,8,0,5-2.58,7-5.43,7-4.37,0-6-4.59-6-8.13,0-5.21,3-6.83,5.48-6.83Zm27.15,5.54a21.66,21.66,0,0,1,.33-4.77c.09-.23.51-.42.93-.51l.6-.12a.29.29,0,0,0,0-.37c-.75,0-1.35.07-2.16.07s-1.66,0-2.54-.07a.29.29,0,0,0,0,.37l.66.09a1.58,1.58,0,0,1,1.1.51c.38.7.42,3.71.42,4.8v5.07c0,.65,0,1.11-.11,1.21-.57-.58-2.89-3.31-3.93-4.52L45.61,130a24.83,24.83,0,0,1-3.73-5,8,8,0,0,1-1.19.07c-.73,0-1.44,0-2.19-.07a.26.26,0,0,0,0,.37l.46.09a3,3,0,0,1,1.3.53c.62.58.6,1.39.6,3.8v4.86a21.74,21.74,0,0,1-.33,4.77c-.09.23-.51.42-.93.51l-.6.12a.29.29,0,0,0,0,.37c.75,0,1.35-.07,2.16-.07s1.66,0,2.54.07a.29.29,0,0,0,0-.37L43,140a1.58,1.58,0,0,1-1.1-.51c-.38-.7-.42-3.71-.42-4.8v-5.24c0-1.09,0-1.44.22-1.44.4.37.84.93,2.5,2.9l5.94,7a30.59,30.59,0,0,1,2.17,2.83,31.86,31.86,0,0,0,.2-4.31V130.8Zm9.06,5.93a6.8,6.8,0,0,1-.33,2.78,1.67,1.67,0,0,1-1,.44l-.88.14a.27.27,0,0,0,0,.37c1,0,2-.07,3.11-.07h2.1c1.85,0,3.69,0,5.7.07a12.44,12.44,0,0,0,.93-3.13c0-.12-.29-.19-.4-.12-1,2.39-1.94,2.69-4.62,2.64-1.92,0-2.36-.26-2.61-.53a5.06,5.06,0,0,1-.38-2.55v-3.27c0-.72,0-.79.66-.79h1.24a6.49,6.49,0,0,1,2,.23,1.11,1.11,0,0,1,.6.83l.24.93a.36.36,0,0,0,.4,0c0-.49-.07-1.37-.07-2.25s.07-1.78.07-2.25a.35.35,0,0,0-.4,0l-.22.88c-.15.58-.4.81-.62.88a7.94,7.94,0,0,1-2,.16H63.94c-.64,0-.66-.07-.66-.79v-3.68a7.7,7.7,0,0,1,.11-1.69c0-.21.2-.3,1-.3h1.21a9.48,9.48,0,0,1,2.16.19c1.21.28,1.57,1.18,1.81,2.22a.39.39,0,0,0,.4-.07c-.11-.88-.24-2.55-.33-2.94a29,29,0,0,1-3,.07H62.55c-.9,0-1.66,0-2.65-.07a.27.27,0,0,0,0,.37l.42.09a1.56,1.56,0,0,1,1,.53,6.53,6.53,0,0,1,.31,2.73v8Zm27.85,4c1.88,0,3.58-1.32,4.75-2.8a15.67,15.67,0,0,0,1.41,2.18,3.92,3.92,0,0,0,2.34.63,4.5,4.5,0,0,0,3.4-1.53c0-.18,0-.32-.2-.35a3.12,3.12,0,0,1-2.1.88c-.95,0-2-.32-3.23-2.2a10,10,0,0,1-.62-1c1.21-1.78,2.12-3.31,2.52-4a21.65,21.65,0,0,1,1.39-2.2,1.56,1.56,0,0,1,.82-.42l1.24-.28a.38.38,0,0,0,0-.38c-.57,0-2.1.09-3.09.09H96.36a.26.26,0,0,0,0,.38l.79.16c.42.07.57.16.57.32a4.84,4.84,0,0,1-.48,1.5,26.93,26.93,0,0,1-2.32,4.24,15.62,15.62,0,0,0-4.17-4.86,3.49,3.49,0,0,0,2.05-2.81A2.66,2.66,0,0,0,90,125.56a3,3,0,0,0-2.91,3.06,3.53,3.53,0,0,0,1.74,2.86c-1.83,1.13-3.64,2.82-3.64,5a4.05,4.05,0,0,0,4.26,4.19Zm-.13-8.84a15.52,15.52,0,0,1,4.57,5.49,5,5,0,0,1-3.78,2.15A3.43,3.43,0,0,1,86.66,136a5,5,0,0,1,2.65-4.12Zm.93-1.16c-1-.67-1.9-1.33-1.92-2.65a1.87,1.87,0,0,1,1.59-2c1.1,0,1.59,1.07,1.59,2a3.3,3.3,0,0,1-1.26,2.58Zm28.91-1.9a7.42,7.42,0,0,1,.31-2.85,1.84,1.84,0,0,1,1-.49l.33-.07c.09-.14.09-.31,0-.38-.77,0-1.55.07-2.5.07s-1.61,0-2.83-.07a.28.28,0,0,0,0,.38l.66.12a1.54,1.54,0,0,1,1,.44,7.33,7.33,0,0,1,.31,2.85v8.68c0,1.23-.07,4.77-.57,5.84a.94.94,0,0,1-.88.6c-.64,0-1.28-.35-1.79-.35s-.75.56-.75,1,.68.51.95.51c2.05,0,3.47-1.48,4.2-3.34a13.4,13.4,0,0,0,.53-4.49v-8.41Zm15.11-4.09c-4.48,0-7.8,3.54-7.8,8.18a7.55,7.55,0,0,0,7.75,7.85c4.31,0,7.64-3.36,7.64-8.11,0-4.12-2.61-7.92-7.6-7.92Zm-.33.53c4.33,0,5.94,4.38,5.94,8,0,5-2.58,7-5.43,7-4.37,0-6-4.59-6-8.13,0-5.21,3-6.83,5.48-6.83Zm17.14,3.54a7.44,7.44,0,0,1,.31-2.85,1.68,1.68,0,0,1,1-.46l.55-.09c.09-.14.09-.3,0-.37-1,0-1.77.07-2.71.07s-1.61,0-2.7-.07a.27.27,0,0,0,0,.37l.53.09a1.67,1.67,0,0,1,1,.46,7.34,7.34,0,0,1,.31,2.85v7.88a7.42,7.42,0,0,1-.31,2.85,1.67,1.67,0,0,1-1,.46l-.55.09a.29.29,0,0,0,0,.37c1.15,0,1.81-.07,2.7-.07s1.54,0,2.69.07a.29.29,0,0,0,0-.37l-.55-.09a1.68,1.68,0,0,1-1-.46,7.45,7.45,0,0,1-.31-2.85v-7.88Zm21.07,2a21.69,21.69,0,0,1,.33-4.77c.09-.23.51-.42.93-.51l.6-.12a.29.29,0,0,0,0-.37c-.75,0-1.35.07-2.17.07s-1.65,0-2.54-.07a.29.29,0,0,0,0,.37l.66.09a1.57,1.57,0,0,1,1.1.51c.38.7.42,3.71.42,4.8v5.07c0,.65,0,1.11-.11,1.21-.57-.58-2.89-3.31-3.93-4.52L165.2,130a24.79,24.79,0,0,1-3.73-5,8,8,0,0,1-1.19.07c-.73,0-1.44,0-2.19-.07a.26.26,0,0,0,0,.37l.46.09a3,3,0,0,1,1.3.53c.62.58.6,1.39.6,3.8v4.86a21.59,21.59,0,0,1-.33,4.77c-.09.23-.51.42-.93.51l-.6.12a.29.29,0,0,0,0,.37c.75,0,1.35-.07,2.17-.07s1.66,0,2.54.07a.29.29,0,0,0,0-.37l-.66-.09a1.58,1.58,0,0,1-1.1-.51c-.37-.7-.42-3.71-.42-4.8v-5.24c0-1.09,0-1.44.22-1.44.4.37.84.93,2.5,2.9l5.94,7a30.75,30.75,0,0,1,2.16,2.83,32,32,0,0,0,.2-4.31V130.8Zm9.5-5.7a6.6,6.6,0,0,1-1.59-.16.66.66,0,0,1-.37-.42,33.28,33.28,0,0,0-1.15,3.17.31.31,0,0,0,.4.16,6,6,0,0,1,1-1.64c.46-.51,1.41-.58,2.78-.58H184c.66,0,.68,0,.68.9v10.19a7.19,7.19,0,0,1-.31,2.83,1.45,1.45,0,0,1-1,.42l-1,.12a.27.27,0,0,0,0,.37c.9,0,1.81-.07,3.09-.07,1.12,0,1.94,0,2.89.07a.27.27,0,0,0,0-.37l-.75-.09a1.66,1.66,0,0,1-1-.44,7.3,7.3,0,0,1-.31-2.83V126.54c0-.88,0-.9.68-.9h1.52a3.83,3.83,0,0,1,2.63.62,3.15,3.15,0,0,1,.6,1.69.29.29,0,0,0,.4,0,13.69,13.69,0,0,1,.33-3.34c-.44.16-.62.35-.79.39a5.41,5.41,0,0,1-1.54.14Zm33.12.16c3.4,0,4.33,1.9,4.7,3.36.09,0,.33,0,.4,0-.18-1.3-.35-2.66-.35-3.31a1.86,1.86,0,0,1-.55-.07,18.24,18.24,0,0,0-3.89-.46,9.1,9.1,0,0,0-6,2,7.7,7.7,0,0,0-2.78,6,7.55,7.55,0,0,0,3.11,6.46,9,9,0,0,0,5.41,1.58,13,13,0,0,0,3.55-.53,7.79,7.79,0,0,1,.77-.21,9.71,9.71,0,0,0,1.06-3.24.28.28,0,0,0-.4-.07c-.73,1.53-2,3.52-4.93,3.52-3.6,0-6.6-2.69-6.6-7.74s3-7.23,6.45-7.23Zm14.11,3.54a7.39,7.39,0,0,1,.31-2.85,1.67,1.67,0,0,1,1-.46l.51-.09c.09-.14.09-.3,0-.37-.95,0-1.72.07-2.67.07s-1.61,0-2.8-.07a.26.26,0,0,0,0,.37l.64.09a1.67,1.67,0,0,1,1,.46,7.31,7.31,0,0,1,.31,2.85v7.88a7.39,7.39,0,0,1-.31,2.85,1.67,1.67,0,0,1-1,.46l-.64.09a.29.29,0,0,0,0,.37c1.24,0,1.9-.07,2.78-.07h1.81c2.38,0,4.37,0,5.72.07a14.38,14.38,0,0,0,.93-3.15.34.34,0,0,0-.4-.09c-1,2.48-1.77,2.64-4.22,2.64-1.94,0-2.43-.28-2.65-.53a5.39,5.39,0,0,1-.35-2.55v-8Zm15.75,0a7.44,7.44,0,0,1,.31-2.85,1.68,1.68,0,0,1,1-.46l.55-.09c.09-.14.09-.3,0-.37-1,0-1.77.07-2.71.07s-1.61,0-2.7-.07a.27.27,0,0,0,0,.37l.53.09a1.67,1.67,0,0,1,1,.46,7.32,7.32,0,0,1,.31,2.85v7.88a7.39,7.39,0,0,1-.31,2.85,1.67,1.67,0,0,1-1,.46l-.55.09a.29.29,0,0,0,0,.37c1.15,0,1.81-.07,2.7-.07s1.54,0,2.69.07a.29.29,0,0,0,0-.37L246,140a1.69,1.69,0,0,1-1-.46,7.44,7.44,0,0,1-.31-2.85v-7.88Zm21.07,2A21.69,21.69,0,0,1,266,126c.09-.23.51-.42.93-.51l.6-.12a.29.29,0,0,0,0-.37c-.75,0-1.35.07-2.16.07s-1.66,0-2.54-.07a.29.29,0,0,0,0,.37l.66.09a1.58,1.58,0,0,1,1.11.51c.38.7.42,3.71.42,4.8v5.07c0,.65,0,1.11-.11,1.21-.57-.58-2.89-3.31-3.93-4.52L258.75,130a24.78,24.78,0,0,1-3.73-5,8,8,0,0,1-1.19.07c-.73,0-1.43,0-2.19-.07a.26.26,0,0,0,0,.37l.46.09a3,3,0,0,1,1.3.53c.62.58.6,1.39.6,3.8v4.86a21.71,21.71,0,0,1-.33,4.77c-.09.23-.51.42-.93.51l-.6.12a.29.29,0,0,0,0,.37c.75,0,1.35-.07,2.17-.07s1.66,0,2.54.07a.29.29,0,0,0,0-.37l-.66-.09a1.58,1.58,0,0,1-1.1-.51c-.37-.7-.42-3.71-.42-4.8v-5.24c0-1.09,0-1.44.22-1.44.4.37.84.93,2.5,2.9l5.94,7a30.77,30.77,0,0,1,2.16,2.83,32,32,0,0,0,.2-4.31V130.8Zm10.74-2a7.39,7.39,0,0,1,.31-2.85,1.67,1.67,0,0,1,1-.46l.55-.09c.09-.14.09-.3,0-.37-1,0-1.77.07-2.72.07s-1.61,0-2.69-.07a.26.26,0,0,0,0,.37l.53.09a1.68,1.68,0,0,1,1,.46,7.37,7.37,0,0,1,.31,2.85v7.88a7.44,7.44,0,0,1-.31,2.85,1.69,1.69,0,0,1-1,.46l-.55.09a.29.29,0,0,0,0,.37c1.15,0,1.81-.07,2.69-.07s1.55,0,2.7.07a.29.29,0,0,0,0-.37l-.55-.09a1.67,1.67,0,0,1-1-.46,7.39,7.39,0,0,1-.31-2.85v-7.88Zm16-3.54c3.4,0,4.33,1.9,4.7,3.36.09,0,.33,0,.4,0-.18-1.3-.35-2.66-.35-3.31a1.87,1.87,0,0,1-.55-.07,18.22,18.22,0,0,0-3.88-.46,9.09,9.09,0,0,0-6,2,7.7,7.7,0,0,0-2.78,6,7.55,7.55,0,0,0,3.11,6.46,9,9,0,0,0,5.41,1.58,13,13,0,0,0,3.55-.53,7.69,7.69,0,0,1,.77-.21,9.76,9.76,0,0,0,1.06-3.24.28.28,0,0,0-.4-.07c-.73,1.53-2,3.52-4.93,3.52-3.6,0-6.6-2.69-6.6-7.74s3-7.23,6.45-7.23Z"/><path class="cls-3" d="M3.24,136.73a7.11,7.11,0,0,1-.31,2.8A1.71,1.71,0,0,1,2,140l-.6.12a.27.27,0,0,0,0,.37c1.17,0,1.85-.07,3-.07.8,0,1.81.09,2.45.09,3.87,0,5.74-1.71,5.74-4.52a3.75,3.75,0,0,0-3-3.85c-.2,0-.51-.14-.35-.37a3.43,3.43,0,0,0,2.21-3.17,3.11,3.11,0,0,0-1.72-2.92A8.92,8.92,0,0,0,5.83,125c-2.08,0-3.42.12-4.39.19a.27.27,0,0,0,0,.37l.77.14a1.13,1.13,0,0,1,.75.44c.11.14.31.56.31,3.17v7.39ZM4.92,133c0-.51.07-.58,1.41-.58,3.56,0,4.39,2.06,4.39,4A3.17,3.17,0,0,1,7.28,140a2.46,2.46,0,0,1-2-.62,5,5,0,0,1-.4-2.6V133Zm0-6.46c0-.51.07-.67.15-.79s.64-.23,1.19-.23a3.08,3.08,0,0,1,3.4,3.31c0,2.29-1.22,3.06-3.75,3.06-.93,0-1,0-1-.65v-4.7Zm20.81-1.85c-4.48,0-7.8,3.54-7.8,8.18a7.55,7.55,0,0,0,7.75,7.85c4.31,0,7.64-3.36,7.64-8.11,0-4.12-2.61-7.92-7.6-7.92Zm-.33.53c4.33,0,5.94,4.38,5.94,8,0,5-2.58,7-5.43,7-4.37,0-6-4.59-6-8.13,0-5.21,3-6.83,5.48-6.83Zm27.15,5.54a21.66,21.66,0,0,1,.33-4.77c.09-.23.51-.42.93-.51l.6-.12a.29.29,0,0,0,0-.37c-.75,0-1.35.07-2.16.07s-1.66,0-2.54-.07a.29.29,0,0,0,0,.37l.66.09a1.58,1.58,0,0,1,1.1.51c.38.7.42,3.71.42,4.8v5.07c0,.65,0,1.11-.11,1.21-.57-.58-2.89-3.31-3.93-4.52L45.61,130a24.83,24.83,0,0,1-3.73-5,8,8,0,0,1-1.19.07c-.73,0-1.44,0-2.19-.07a.26.26,0,0,0,0,.37l.46.09a3,3,0,0,1,1.3.53c.62.58.6,1.39.6,3.8v4.86a21.74,21.74,0,0,1-.33,4.77c-.09.23-.51.42-.93.51l-.6.12a.29.29,0,0,0,0,.37c.75,0,1.35-.07,2.16-.07s1.66,0,2.54.07a.29.29,0,0,0,0-.37L43,140a1.58,1.58,0,0,1-1.1-.51c-.38-.7-.42-3.71-.42-4.8v-5.24c0-1.09,0-1.44.22-1.44.4.37.84.93,2.5,2.9l5.94,7a30.59,30.59,0,0,1,2.17,2.83,31.86,31.86,0,0,0,.2-4.31V130.8Zm9.06,5.93a6.8,6.8,0,0,1-.33,2.78,1.67,1.67,0,0,1-1,.44l-.88.14a.27.27,0,0,0,0,.37c1,0,2-.07,3.11-.07h2.1c1.85,0,3.69,0,5.7.07a12.44,12.44,0,0,0,.93-3.13c0-.12-.29-.19-.4-.12-1,2.39-1.94,2.69-4.62,2.64-1.92,0-2.36-.26-2.61-.53a5.06,5.06,0,0,1-.38-2.55v-3.27c0-.72,0-.79.66-.79h1.24a6.49,6.49,0,0,1,2,.23,1.11,1.11,0,0,1,.6.83l.24.93a.36.36,0,0,0,.4,0c0-.49-.07-1.37-.07-2.25s.07-1.78.07-2.25a.35.35,0,0,0-.4,0l-.22.88c-.15.58-.4.81-.62.88a7.94,7.94,0,0,1-2,.16H63.94c-.64,0-.66-.07-.66-.79v-3.68a7.7,7.7,0,0,1,.11-1.69c0-.21.2-.3,1-.3h1.21a9.48,9.48,0,0,1,2.16.19c1.21.28,1.57,1.18,1.81,2.22a.39.39,0,0,0,.4-.07c-.11-.88-.24-2.55-.33-2.94a29,29,0,0,1-3,.07H62.55c-.9,0-1.66,0-2.65-.07a.27.27,0,0,0,0,.37l.42.09a1.56,1.56,0,0,1,1,.53,6.53,6.53,0,0,1,.31,2.73v8Zm27.85,4c1.88,0,3.58-1.32,4.75-2.8a15.67,15.67,0,0,0,1.41,2.18,3.92,3.92,0,0,0,2.34.63,4.5,4.5,0,0,0,3.4-1.53c0-.18,0-.32-.2-.35a3.12,3.12,0,0,1-2.1.88c-.95,0-2-.32-3.23-2.2a10,10,0,0,1-.62-1c1.21-1.78,2.12-3.31,2.52-4a21.65,21.65,0,0,1,1.39-2.2,1.56,1.56,0,0,1,.82-.42l1.24-.28a.38.38,0,0,0,0-.38c-.57,0-2.1.09-3.09.09H96.36a.26.26,0,0,0,0,.38l.79.16c.42.07.57.16.57.32a4.84,4.84,0,0,1-.48,1.5,26.93,26.93,0,0,1-2.32,4.24,15.62,15.62,0,0,0-4.17-4.86,3.49,3.49,0,0,0,2.05-2.81A2.66,2.66,0,0,0,90,125.56a3,3,0,0,0-2.91,3.06,3.53,3.53,0,0,0,1.74,2.86c-1.83,1.13-3.64,2.82-3.64,5a4.05,4.05,0,0,0,4.26,4.19Zm-.13-8.84a15.52,15.52,0,0,1,4.57,5.49,5,5,0,0,1-3.78,2.15A3.43,3.43,0,0,1,86.66,136a5,5,0,0,1,2.65-4.12Zm.93-1.16c-1-.67-1.9-1.33-1.92-2.65a1.87,1.87,0,0,1,1.59-2c1.1,0,1.59,1.07,1.59,2a3.3,3.3,0,0,1-1.26,2.58Zm28.91-1.9a7.42,7.42,0,0,1,.31-2.85,1.84,1.84,0,0,1,1-.49l.33-.07c.09-.14.09-.31,0-.38-.77,0-1.55.07-2.5.07s-1.61,0-2.83-.07a.28.28,0,0,0,0,.38l.66.12a1.54,1.54,0,0,1,1,.44,7.33,7.33,0,0,1,.31,2.85v8.68c0,1.23-.07,4.77-.57,5.84a.94.94,0,0,1-.88.6c-.64,0-1.28-.35-1.79-.35s-.75.56-.75,1,.68.51.95.51c2.05,0,3.47-1.48,4.2-3.34a13.4,13.4,0,0,0,.53-4.49v-8.41Zm15.11-4.09c-4.48,0-7.8,3.54-7.8,8.18a7.55,7.55,0,0,0,7.75,7.85c4.31,0,7.64-3.36,7.64-8.11,0-4.12-2.61-7.92-7.6-7.92Zm-.33.53c4.33,0,5.94,4.38,5.94,8,0,5-2.58,7-5.43,7-4.37,0-6-4.59-6-8.13,0-5.21,3-6.83,5.48-6.83Zm17.14,3.54a7.44,7.44,0,0,1,.31-2.85,1.68,1.68,0,0,1,1-.46l.55-.09c.09-.14.09-.3,0-.37-1,0-1.77.07-2.71.07s-1.61,0-2.7-.07a.27.27,0,0,0,0,.37l.53.09a1.67,1.67,0,0,1,1,.46,7.34,7.34,0,0,1,.31,2.85v7.88a7.42,7.42,0,0,1-.31,2.85,1.67,1.67,0,0,1-1,.46l-.55.09a.29.29,0,0,0,0,.37c1.15,0,1.81-.07,2.7-.07s1.54,0,2.69.07a.29.29,0,0,0,0-.37l-.55-.09a1.68,1.68,0,0,1-1-.46,7.45,7.45,0,0,1-.31-2.85v-7.88Zm21.07,2a21.69,21.69,0,0,1,.33-4.77c.09-.23.51-.42.93-.51l.6-.12a.29.29,0,0,0,0-.37c-.75,0-1.35.07-2.17.07s-1.65,0-2.54-.07a.29.29,0,0,0,0,.37l.66.09a1.57,1.57,0,0,1,1.1.51c.38.7.42,3.71.42,4.8v5.07c0,.65,0,1.11-.11,1.21-.57-.58-2.89-3.31-3.93-4.52L165.2,130a24.79,24.79,0,0,1-3.73-5,8,8,0,0,1-1.19.07c-.73,0-1.44,0-2.19-.07a.26.26,0,0,0,0,.37l.46.09a3,3,0,0,1,1.3.53c.62.58.6,1.39.6,3.8v4.86a21.59,21.59,0,0,1-.33,4.77c-.09.23-.51.42-.93.51l-.6.12a.29.29,0,0,0,0,.37c.75,0,1.35-.07,2.17-.07s1.66,0,2.54.07a.29.29,0,0,0,0-.37l-.66-.09a1.58,1.58,0,0,1-1.1-.51c-.37-.7-.42-3.71-.42-4.8v-5.24c0-1.09,0-1.44.22-1.44.4.37.84.93,2.5,2.9l5.94,7a30.75,30.75,0,0,1,2.16,2.83,32,32,0,0,0,.2-4.31V130.8Zm9.5-5.7a6.6,6.6,0,0,1-1.59-.16.66.66,0,0,1-.37-.42,33.28,33.28,0,0,0-1.15,3.17.31.31,0,0,0,.4.16,6,6,0,0,1,1-1.64c.46-.51,1.41-.58,2.78-.58H184c.66,0,.68,0,.68.9v10.19a7.19,7.19,0,0,1-.31,2.83,1.45,1.45,0,0,1-1,.42l-1,.12a.27.27,0,0,0,0,.37c.9,0,1.81-.07,3.09-.07,1.12,0,1.94,0,2.89.07a.27.27,0,0,0,0-.37l-.75-.09a1.66,1.66,0,0,1-1-.44,7.3,7.3,0,0,1-.31-2.83V126.54c0-.88,0-.9.68-.9h1.52a3.83,3.83,0,0,1,2.63.62,3.15,3.15,0,0,1,.6,1.69.29.29,0,0,0,.4,0,13.69,13.69,0,0,1,.33-3.34c-.44.16-.62.35-.79.39a5.41,5.41,0,0,1-1.54.14Zm33.12.16c3.4,0,4.33,1.9,4.7,3.36.09,0,.33,0,.4,0-.18-1.3-.35-2.66-.35-3.31a1.86,1.86,0,0,1-.55-.07,18.24,18.24,0,0,0-3.89-.46,9.1,9.1,0,0,0-6,2,7.7,7.7,0,0,0-2.78,6,7.55,7.55,0,0,0,3.11,6.46,9,9,0,0,0,5.41,1.58,13,13,0,0,0,3.55-.53,7.79,7.79,0,0,1,.77-.21,9.71,9.71,0,0,0,1.06-3.24.28.28,0,0,0-.4-.07c-.73,1.53-2,3.52-4.93,3.52-3.6,0-6.6-2.69-6.6-7.74s3-7.23,6.45-7.23Zm14.11,3.54a7.39,7.39,0,0,1,.31-2.85,1.67,1.67,0,0,1,1-.46l.51-.09c.09-.14.09-.3,0-.37-.95,0-1.72.07-2.67.07s-1.61,0-2.8-.07a.26.26,0,0,0,0,.37l.64.09a1.67,1.67,0,0,1,1,.46,7.31,7.31,0,0,1,.31,2.85v7.88a7.39,7.39,0,0,1-.31,2.85,1.67,1.67,0,0,1-1,.46l-.64.09a.29.29,0,0,0,0,.37c1.24,0,1.9-.07,2.78-.07h1.81c2.38,0,4.37,0,5.72.07a14.38,14.38,0,0,0,.93-3.15.34.34,0,0,0-.4-.09c-1,2.48-1.77,2.64-4.22,2.64-1.94,0-2.43-.28-2.65-.53a5.39,5.39,0,0,1-.35-2.55v-8Zm15.75,0a7.44,7.44,0,0,1,.31-2.85,1.68,1.68,0,0,1,1-.46l.55-.09c.09-.14.09-.3,0-.37-1,0-1.77.07-2.71.07s-1.61,0-2.7-.07a.27.27,0,0,0,0,.37l.53.09a1.67,1.67,0,0,1,1,.46,7.32,7.32,0,0,1,.31,2.85v7.88a7.39,7.39,0,0,1-.31,2.85,1.67,1.67,0,0,1-1,.46l-.55.09a.29.29,0,0,0,0,.37c1.15,0,1.81-.07,2.7-.07s1.54,0,2.69.07a.29.29,0,0,0,0-.37L246,140a1.69,1.69,0,0,1-1-.46,7.44,7.44,0,0,1-.31-2.85v-7.88Zm21.07,2A21.69,21.69,0,0,1,266,126c.09-.23.51-.42.93-.51l.6-.12a.29.29,0,0,0,0-.37c-.75,0-1.35.07-2.16.07s-1.66,0-2.54-.07a.29.29,0,0,0,0,.37l.66.09a1.58,1.58,0,0,1,1.11.51c.38.7.42,3.71.42,4.8v5.07c0,.65,0,1.11-.11,1.21-.57-.58-2.89-3.31-3.93-4.52L258.75,130a24.78,24.78,0,0,1-3.73-5,8,8,0,0,1-1.19.07c-.73,0-1.43,0-2.19-.07a.26.26,0,0,0,0,.37l.46.09a3,3,0,0,1,1.3.53c.62.58.6,1.39.6,3.8v4.86a21.71,21.71,0,0,1-.33,4.77c-.09.23-.51.42-.93.51l-.6.12a.29.29,0,0,0,0,.37c.75,0,1.35-.07,2.17-.07s1.66,0,2.54.07a.29.29,0,0,0,0-.37l-.66-.09a1.58,1.58,0,0,1-1.1-.51c-.37-.7-.42-3.71-.42-4.8v-5.24c0-1.09,0-1.44.22-1.44.4.37.84.93,2.5,2.9l5.94,7a30.77,30.77,0,0,1,2.16,2.83,32,32,0,0,0,.2-4.31V130.8Zm10.74-2a7.39,7.39,0,0,1,.31-2.85,1.67,1.67,0,0,1,1-.46l.55-.09c.09-.14.09-.3,0-.37-1,0-1.77.07-2.72.07s-1.61,0-2.69-.07a.26.26,0,0,0,0,.37l.53.09a1.68,1.68,0,0,1,1,.46,7.37,7.37,0,0,1,.31,2.85v7.88a7.44,7.44,0,0,1-.31,2.85,1.69,1.69,0,0,1-1,.46l-.55.09a.29.29,0,0,0,0,.37c1.15,0,1.81-.07,2.69-.07s1.55,0,2.7.07a.29.29,0,0,0,0-.37l-.55-.09a1.67,1.67,0,0,1-1-.46,7.39,7.39,0,0,1-.31-2.85v-7.88Zm16-3.54c3.4,0,4.33,1.9,4.7,3.36.09,0,.33,0,.4,0-.18-1.3-.35-2.66-.35-3.31a1.87,1.87,0,0,1-.55-.07,18.22,18.22,0,0,0-3.88-.46,9.09,9.09,0,0,0-6,2,7.7,7.7,0,0,0-2.78,6,7.55,7.55,0,0,0,3.11,6.46,9,9,0,0,0,5.41,1.58,13,13,0,0,0,3.55-.53,7.69,7.69,0,0,1,.77-.21,9.76,9.76,0,0,0,1.06-3.24.28.28,0,0,0-.4-.07c-.73,1.53-2,3.52-4.93,3.52-3.6,0-6.6-2.69-6.6-7.74s3-7.23,6.45-7.23Z"/><line class="cls-4" y1="112.57" x2="299.2" y2="112.57"/><path class="cls-2" d="M62.7,155.22a6.34,6.34,0,0,0-.16,1.41A5.11,5.11,0,0,0,67.77,162a5.19,5.19,0,0,0,5.15-5.5,6.4,6.4,0,0,0-.12-1.24H71.42a8.32,8.32,0,0,1,.17,1.66c0,3.38-1.74,4.71-3.66,4.71-2.95,0-4-3.11-4-5.52a8.35,8.35,0,0,1,0-.86Zm16.53,0v4a5.56,5.56,0,0,1-.19,1.88,1.17,1.17,0,0,1-.7.3l-.4.08a4.57,4.57,0,0,0,1.83.21c.7,0,1.34,0,2,0l-.54-.35a1.16,1.16,0,0,1-.69-.3,4.91,4.91,0,0,1-.21-1.87v-2c0-.47,0-.5.43-.5h.54a6.88,6.88,0,0,1,1.89.13.67.67,0,0,1,.42.55l.18.67a3,3,0,0,0,.21-1.52c0-.5,0-1,0-1.34h-.13l-.28.41c-.1.39-.24.49-.45.55a8,8,0,0,1-1.89.13H80.8c-.42,0-.43,0-.43-.55v-.53Zm18.83,0v4a4.89,4.89,0,0,1-.21,1.9,1.15,1.15,0,0,1-.64.3l-.4.08a6.61,6.61,0,0,0,2,.2c.54,0,1.22.06,1.65.06,2.6,0,3.87-1.16,3.87-3.06a2.54,2.54,0,0,0-2-2.61c-.13,0-.34-.09-.24-.25a3.45,3.45,0,0,0,.88-.62h-.95a2.51,2.51,0,0,1-2.2.75c-.63,0-.67,0-.67-.44v-.31Zm13.41,0-.65,1.82c-.71,1.95-1,2.78-1.33,3.49s-.43.75-.79.83l-.57.14a3.12,3.12,0,0,0,1.43.2c.61,0,1.07,0,1.47,0l-.54-.35c-.34-.06-.45-.16-.45-.33a2.5,2.5,0,0,1,.16-.77l.79-2.45c.09-.32.12-.33.48-.33H114c.33,0,.37,0,.48.33l.71,2.34a3.4,3.4,0,0,1,.19.83c0,.23-.18.31-.49.38l-.43.09a3.81,3.81,0,0,0,1.65.2c.77,0,1.27,0,1.73,0l-.43-.33c-.61-.12-.77-.41-1.22-1.77l-1.45-4.43h-1.13l.44,1.4c.14.41.15.42-.25.42h-2.07c-.43,0-.43,0-.28-.41l.48-1.41Zm12.86,0v4a4.94,4.94,0,0,1-.21,1.92,1,1,0,0,1-.66.28l-.66.08a6.15,6.15,0,0,0,2.1.2c.76,0,1.31,0,2,0l-.49-.32a1.1,1.1,0,0,1-.7-.3,5,5,0,0,1-.21-1.92v-4Zm9.34,0a6.31,6.31,0,0,0-.16,1.41,5.11,5.11,0,0,0,5.23,5.33,5.19,5.19,0,0,0,5.15-5.5,6.48,6.48,0,0,0-.12-1.24h-1.39a8.27,8.27,0,0,1,.17,1.66c0,3.38-1.74,4.71-3.66,4.71-2.95,0-4-3.11-4-5.52a7.94,7.94,0,0,1,0-.86Zm16.5,0v2.62a14.85,14.85,0,0,1-.22,3.24c-.06.16-.34.28-.62.34l-.4.08a3.37,3.37,0,0,0,1.47.2c.57,0,1.12,0,1.71,0l-.43-.32a1.06,1.06,0,0,1-.74-.35,12.88,12.88,0,0,1-.28-3.25v-2.62Zm2.26,0,0,.06,4,4.76a20.75,20.75,0,0,1,1.46,1.92,21.9,21.9,0,0,0,.13-2.92v-3.82h-.47v3.42c0,.44,0,.75-.08.82-.39-.39-1.95-2.25-2.65-3.07l-1-1.18Zm20.28,0v4a5.06,5.06,0,0,1-.21,1.93,1.12,1.12,0,0,1-.7.31l-.37.06a5.87,5.87,0,0,0,1.85.2c.6,0,1,0,1.74,0l-.27-.32a1.11,1.11,0,0,1-.7-.31,5.06,5.06,0,0,1-.21-1.93v-1.82c0-.36,0-.39.83-.39a1,1,0,0,1,1,.53c.48.74,1.1,1.81,1.49,2.39,1.06,1.59,1.77,2,3.14,2a2.92,2.92,0,0,0,.61-.08,3.58,3.58,0,0,1-1.13-.58,17.93,17.93,0,0,1-3-4.26.43.43,0,0,1-.06-.39,3.09,3.09,0,0,0,1.54-1.35h-1.08a1.93,1.93,0,0,1-.64,1,2.46,2.46,0,0,1-1.61.41c-.64,0-.92,0-1-.11a.68.68,0,0,1-.07-.41v-.88Zm11.62,0a6.29,6.29,0,0,0-.16,1.41A5.11,5.11,0,0,0,189.4,162a5.19,5.19,0,0,0,5.15-5.5,6.55,6.55,0,0,0-.12-1.24H193a8.35,8.35,0,0,1,.17,1.66c0,3.38-1.74,4.71-3.66,4.71-2.95,0-4-3.11-4-5.52a8.49,8.49,0,0,1,0-.86Zm16.39,0v2.31c0,1.71.36,2.86,1.13,3.55a4,4,0,0,0,2.84.88,3.85,3.85,0,0,0,2.89-1.13,5.43,5.43,0,0,0,1-3.58v-2h-.48v2.06c0,2.39-.82,4.16-3.13,4.16s-3.1-1.73-3.1-4.15v-2.07Zm13.84,0a5.85,5.85,0,0,0-.17,1.41,5.39,5.39,0,0,0,1.35,3.55,6,6,0,0,0,4.53,1.78,9.69,9.69,0,0,0,2.58-.41,2.51,2.51,0,0,1,.73-.14.75.75,0,0,0-.21-.32,2.59,2.59,0,0,1-.13-1v-.94a2.5,2.5,0,0,1,.16-1.1c.07-.16.22-.22.49-.28l.33-.06a4,4,0,0,0-1.65-.2c-.76,0-1.62,0-2.05,0l.56.35c.45.08.76.17.87.33a2.75,2.75,0,0,1,.19,1.35v.68a2,2,0,0,1-.15,1,2.36,2.36,0,0,1-1.65.42c-3.11,0-4.6-2.42-4.6-5.52a6.5,6.5,0,0,1,.05-.86Zm15.58,0v4a4.64,4.64,0,0,1-.22,1.89,1.14,1.14,0,0,1-.67.3l-.6.09a6.92,6.92,0,0,0,2.13.2h1.41c1.25,0,2.49,0,3.84,0a8.43,8.43,0,0,0,.63-2.12c-.91,1.54-1.58,1.74-3.38,1.71-1.29,0-1.59-.17-1.76-.36a3.47,3.47,0,0,1-.25-1.73V157c0-.49,0-.53.45-.53h.83a4.37,4.37,0,0,1,1.37.16.75.75,0,0,1,.4.57l.16.63a2.72,2.72,0,0,0,.22-1.54c0-.38,0-.77,0-1.09h-.29l-.11.16c-.1.39-.27.55-.42.6a5.37,5.37,0,0,1-1.37.11h-.83c-.43,0-.45,0-.45-.54v-.33ZM99.2,156.73c0-.35,0-.39,1-.39,2.4,0,3,1.4,3,2.7a2.14,2.14,0,0,1-2.32,2.37,1.65,1.65,0,0,1-1.32-.42,3.4,3.4,0,0,1-.27-1.76v-2.5Z"/><path class="cls-2" d="M63.93,155.22c.3-2.85,2.14-3.77,3.65-3.77,2.28,0,3.44,1.81,3.84,3.77H72.8a4.88,4.88,0,0,0-5-4.13,5.17,5.17,0,0,0-5.1,4.13Zm16.43,0v-2.16a4.84,4.84,0,0,1,.08-1.18c0-.14.21-.19.6-.19h.73a7.65,7.65,0,0,1,1.46.11c.83.19,1,.82,1.15,1.54a6.05,6.05,0,0,0,.22-2.06c-.22,0-1.1,0-2.06,0H79.77c-.58,0-1,0-1.59,0l.16.3c.37.08.58.16.7.34a5.33,5.33,0,0,1,.19,1.9v1.38Zm3.71,0c0-.08,0-.14,0-.21l-.14.21Zm15.12,0v-2.88c0-.35,0-.46.1-.53s.43-.16.8-.16a2.08,2.08,0,0,1,2.29,2.25,2.24,2.24,0,0,1-.34,1.32H103a2.05,2.05,0,0,0,.61-1.53,2.11,2.11,0,0,0-1.16-2,6,6,0,0,0-2.65-.42c-1.4,0-2.31.08-3,.13l.51.34a.77.77,0,0,1,.51.3c.07.09.21.38.21,2.15v1Zm12.71,0,.29-.87c.27-.8.54-1.4.6-1.56a9.51,9.51,0,0,1,.4,1.2l.39,1.23h1.13l-.5-1.54c-.49-1.52-.67-2.18-.76-2.45s-.34.22-.91.46a2.46,2.46,0,0,1-.24,1.2l-.84,2.34Zm13.56,0v-2.91c0-.6,0-.61.46-.61h1a2.57,2.57,0,0,1,1.77.42,2.13,2.13,0,0,1,.4,1.15,18.05,18.05,0,0,0,.49-2.29c-.3.11-.42.24-.54.27a3.66,3.66,0,0,1-1,.09h-5.78a4.42,4.42,0,0,1-1.07-.11c-.31-.33-.39-.33-.46-.28a12.79,12.79,0,0,1-.57,2.15,4.6,4.6,0,0,0,1-1c.31-.35,1-.39,1.88-.39h.86c.45,0,.46,0,.46.61v2.91Zm9.44,0c.3-2.85,2.14-3.77,3.65-3.77,2.27,0,3.44,1.81,3.84,3.77h1.39a4.88,4.88,0,0,0-5-4.13,5.17,5.17,0,0,0-5.1,4.13Zm15.75,0v-.93c0-.74,0-1,.15-1,.26.25.56.62,1.63,1.91h1.43l-.46-.54a16.74,16.74,0,0,1-2.52-3.39,5.48,5.48,0,0,1-.8,0c-.49,0-1,0-1.47,0l.28.31a2,2,0,0,1,.88.36c.42.39.4.94.4,2.58v.68Zm7.43,0v0a14.82,14.82,0,0,1,.22-3.24c.06-.16.34-.28.62-.35l.4-.08a3.37,3.37,0,0,0-1.47-.2c-.57,0-1.12,0-1.71,0l.43.31a1.07,1.07,0,0,1,.75.35,13,13,0,0,1,.28,3.25v0Zm15.77,0v-2.61c0-.57,0-.75.12-.82a2,2,0,0,1,.94-.14,2.34,2.34,0,0,1,2.38,2.56,3.52,3.52,0,0,1-.13,1h1.08a2.55,2.55,0,0,0,.3-1.21,2.48,2.48,0,0,0-1.24-2.26,5.13,5.13,0,0,0-2.4-.46,33.46,33.46,0,0,0-3.35.13l.33.28a.75.75,0,0,1,.66.38,5,5,0,0,1,.18,1.75v1.4Zm11.71,0c.3-2.85,2.14-3.77,3.65-3.77,2.28,0,3.44,1.81,3.84,3.77h1.39a4.88,4.88,0,0,0-5-4.13,5.17,5.17,0,0,0-5.1,4.13Zm16.3,0v-1.37a5.06,5.06,0,0,1,.21-1.93,1.13,1.13,0,0,1,.7-.32l.37-.06a5.42,5.42,0,0,0-1.85-.2c-.61,0-1.09,0-1.79,0l.31.31a1.13,1.13,0,0,1,.7.32,5,5,0,0,1,.21,1.93v1.37Zm6.7,0v0a14.82,14.82,0,0,1,.22-3.24c.06-.16.34-.28.63-.35l.4-.08a3.37,3.37,0,0,0-1.47-.2c-.56,0-1.12,0-1.71,0l.43.31a1.07,1.07,0,0,1,.74.35,13,13,0,0,1,.28,3.25v0Zm7.23,0a4,4,0,0,1,4.17-3.77,3.12,3.12,0,0,1,2.56,1,4,4,0,0,1,.63,1.29,15.16,15.16,0,0,0,0-2.29,5.94,5.94,0,0,1-.94-.13,8.46,8.46,0,0,0-1.8-.2,5.94,5.94,0,0,0-4.71,1.85,5.38,5.38,0,0,0-1.17,2.28Zm15.48,0v-2.17a5.51,5.51,0,0,1,.07-1.15c0-.14.13-.2.64-.2h.82a6.4,6.4,0,0,1,1.46.13c.82.19,1.06.8,1.22,1.51a5.65,5.65,0,0,0,0-2,19.52,19.52,0,0,1-2,0h-2.74c-.61,0-1.12,0-1.79,0l.25.31a1.06,1.06,0,0,1,.69.36,4.48,4.48,0,0,1,.21,1.86v1.4Zm3.47,0c0-.17,0-.32,0-.43l-.3.43Z"/><path class="cls-1" d="M67.61,151.5c2.92,0,4,2.93,4,5.37,0,3.34-1.74,4.66-3.66,4.66-2.95,0-4-3.08-4-5.45,0-3.49,2-4.58,3.69-4.58Zm11.65,7.7a5.43,5.43,0,0,1-.19,1.86,1.17,1.17,0,0,1-.7.29l-.4.08a4.63,4.63,0,0,0,1.83.21c.7,0,1.34,0,2,0l-.54-.35a1.16,1.16,0,0,1-.68-.29,4.81,4.81,0,0,1-.21-1.84v-2c0-.46,0-.5.43-.5h.54a7,7,0,0,1,1.89.12.66.66,0,0,1,.42.54l.18.67a3,3,0,0,0,.21-1.5c0-.59,0-1.13.06-1.52l-.42.61c-.1.39-.24.48-.45.54a8.13,8.13,0,0,1-1.89.12h-.54c-.42,0-.43,0-.43-.54V153.1a4.83,4.83,0,0,1,.07-1.17c0-.14.21-.19.6-.19h.73a7.79,7.79,0,0,1,1.46.11c.83.19,1,.81,1.15,1.52a6,6,0,0,0,.22-2c-.22,0-1.1,0-2.05,0H79.8c-.58,0-1,0-1.59,0l.16.29c.37.08.58.16.7.34a5.2,5.2,0,0,1,.19,1.88v5.34Zm18.82,0a4.78,4.78,0,0,1-.21,1.88,1.15,1.15,0,0,1-.64.29l-.4.08a6.64,6.64,0,0,0,2,.2c.54,0,1.22.06,1.65.06,2.6,0,3.87-1.15,3.87-3a2.52,2.52,0,0,0-2-2.58c-.13,0-.34-.09-.24-.25a2.3,2.3,0,0,0,1.49-2.13,2.08,2.08,0,0,0-1.16-2,6.05,6.05,0,0,0-2.65-.42c-1.4,0-2.31.08-3,.12l.51.34a.77.77,0,0,1,.51.29c.07.09.21.37.21,2.13v5Zm1.13-2.47c0-.34,0-.39,1-.39,2.4,0,3,1.38,3,2.67a2.13,2.13,0,0,1-2.32,2.34,1.67,1.67,0,0,1-1.33-.42,3.32,3.32,0,0,1-.27-1.74v-2.47Zm0-4.33c0-.34,0-.45.1-.53s.43-.15.8-.15a2.07,2.07,0,0,1,2.29,2.22c0,1.54-.82,2-2.53,2-.62,0-.67,0-.67-.43v-3.15ZM114,157.51c.33,0,.37,0,.48.33l.71,2.31a3.29,3.29,0,0,1,.19.82c0,.23-.18.31-.49.37l-.43.09a3.85,3.85,0,0,0,1.65.2c.77,0,1.27,0,1.73,0l-.43-.33c-.61-.12-.77-.4-1.22-1.75l-1.95-5.9c-.49-1.51-.67-2.16-.76-2.42s-.34.22-.91.45a2.42,2.42,0,0,1-.24,1.18L110.84,157c-.72,1.92-1,2.75-1.32,3.45s-.43.75-.79.82l-.57.14a3.13,3.13,0,0,0,1.43.2c.61,0,1.07,0,1.47,0l-.54-.34c-.34-.06-.45-.16-.45-.33a2.41,2.41,0,0,1,.16-.76l.79-2.42c.09-.31.12-.33.48-.33Zm-2.26-.48c-.43,0-.43,0-.28-.4l.77-2.25c.27-.79.54-1.38.6-1.54a9.69,9.69,0,0,1,.4,1.18l.83,2.59c.13.4.15.42-.25.42Zm10.55-5.64a4.55,4.55,0,0,1-1.07-.11c-.31-.33-.39-.33-.46-.28a12.59,12.59,0,0,1-.57,2.13,4.65,4.65,0,0,0,1-1c.31-.34,1-.39,1.88-.39h.86c.45,0,.46,0,.46.6v6.83a4.8,4.8,0,0,1-.21,1.9,1,1,0,0,1-.65.28l-.66.08a6.17,6.17,0,0,0,2.1.2c.76,0,1.31,0,1.95,0l-.49-.31a1.12,1.12,0,0,1-.7-.29,4.85,4.85,0,0,1-.21-1.9v-6.83c0-.59,0-.6.46-.6h1a2.59,2.59,0,0,1,1.77.42,2.09,2.09,0,0,1,.4,1.13,17.82,17.82,0,0,0,.49-2.27c-.3.11-.42.23-.54.26a3.66,3.66,0,0,1-1,.09Zm16.5-.25a5.25,5.25,0,0,0-5.25,5.48,5.07,5.07,0,0,0,5.22,5.26,5.15,5.15,0,0,0,5.15-5.44,5,5,0,0,0-5.12-5.31Zm-.22.36c2.92,0,4,2.93,4,5.37,0,3.34-1.74,4.66-3.66,4.66-2.95,0-4-3.08-4-5.45,0-3.49,2-4.58,3.69-4.58Zm19.52,3.71a14.46,14.46,0,0,1,.22-3.2c.06-.16.34-.28.62-.34l.4-.08a3.42,3.42,0,0,0-1.47-.2c-.56,0-1.12,0-1.71,0l.43.31a1.07,1.07,0,0,1,.74.34,12.59,12.59,0,0,1,.28,3.21v3.4c0,.43,0,.74-.07.81-.39-.39-2-2.22-2.65-3l-1.47-1.69a16.65,16.65,0,0,1-2.52-3.35,5.47,5.47,0,0,1-.8,0c-.49,0-1,0-1.47,0l.28.31a2,2,0,0,1,.88.36c.42.39.4.93.4,2.55v3.26A14.49,14.49,0,0,1,150,161c-.06.16-.34.28-.62.34l-.4.08a3.38,3.38,0,0,0,1.47.2c.56,0,1.12,0,1.71,0l-.43-.31a1.07,1.07,0,0,1-.74-.34,12.68,12.68,0,0,1-.28-3.21v-3.51c0-.73,0-1,.15-1,.27.25.57.62,1.68,1.94l4,4.71a20.28,20.28,0,0,1,1.46,1.89,21.08,21.08,0,0,0,.13-2.89v-3.79Zm14.63,3.94a4.93,4.93,0,0,1-.21,1.91,1.13,1.13,0,0,1-.7.31l-.37.06a5.89,5.89,0,0,0,1.85.2c.6,0,1,0,1.74,0l-.27-.31a1.14,1.14,0,0,1-.7-.31,5,5,0,0,1-.21-1.91v-1.8c0-.36,0-.39.83-.39a1,1,0,0,1,1,.53c.48.73,1.1,1.79,1.49,2.36,1.06,1.57,1.77,2,3.14,2a3,3,0,0,0,.61-.08,3.59,3.59,0,0,1-1.13-.57,17.73,17.73,0,0,1-3-4.21.42.42,0,0,1-.06-.39,2.8,2.8,0,0,0,1.85-2.53,2.45,2.45,0,0,0-1.23-2.24,5.19,5.19,0,0,0-2.4-.45c-1.19,0-2.2,0-3.35.12l.33.28a.75.75,0,0,1,.65.37,4.89,4.89,0,0,1,.18,1.72v5.31Zm1.13-6.51c0-.56,0-.74.12-.81a2,2,0,0,1,.94-.14,2.33,2.33,0,0,1,2.38,2.53,2.3,2.3,0,0,1-.77,2,2.49,2.49,0,0,1-1.61.4c-.64,0-.92,0-1-.11a.67.67,0,0,1-.07-.4v-3.45Zm15.58-1.51a5.25,5.25,0,0,0-5.25,5.48,5.07,5.07,0,0,0,5.22,5.26,5.15,5.15,0,0,0,5.15-5.44,5,5,0,0,0-5.12-5.31Zm-.22.36c2.92,0,4,2.93,4,5.37,0,3.34-1.74,4.66-3.66,4.66-2.95,0-4-3.08-4-5.45,0-3.49,2-4.58,3.69-4.58Zm19.34,3.71a14.58,14.58,0,0,1,.22-3.2c.06-.16.34-.28.63-.34l.4-.08a3.4,3.4,0,0,0-1.47-.2c-.57,0-1.12,0-1.71,0l.43.31a1.08,1.08,0,0,1,.74.34,12.68,12.68,0,0,1,.28,3.21v2c0,2.36-.82,4.12-3.13,4.12s-3.1-1.71-3.1-4.1v-3.4A4.94,4.94,0,0,1,202,152a1.13,1.13,0,0,1,.7-.31l.37-.06a5.5,5.5,0,0,0-1.85-.2c-.61,0-1.09,0-1.79,0l.31.31a1.13,1.13,0,0,1,.7.31,4.89,4.89,0,0,1,.21,1.91v3.63c0,1.69.36,2.83,1.13,3.51a4,4,0,0,0,2.84.87,3.87,3.87,0,0,0,2.89-1.12,5.33,5.33,0,0,0,1-3.54v-2Zm14.67,3.93a2.48,2.48,0,0,1,.16-1.09c.08-.16.22-.22.49-.28l.33-.06a4.1,4.1,0,0,0-1.65-.2c-.76,0-1.62,0-2.05,0l.56.34c.45.08.76.17.87.33a2.7,2.7,0,0,1,.19,1.34v.67a1.87,1.87,0,0,1-.15,1,2.37,2.37,0,0,1-1.65.42c-3.11,0-4.6-2.39-4.6-5.45,0-2.42,1.28-4.58,4.23-4.58a3.14,3.14,0,0,1,2.56,1,3.9,3.9,0,0,1,.63,1.27,14.8,14.8,0,0,0,0-2.27,5.91,5.91,0,0,1-.94-.12,8.66,8.66,0,0,0-1.8-.2,6,6,0,0,0-4.7,1.83,5.49,5.49,0,0,0-1.34,3.65,5.28,5.28,0,0,0,1.36,3.51,6,6,0,0,0,4.52,1.75,9.81,9.81,0,0,0,2.57-.4,2.52,2.52,0,0,1,.73-.14.76.76,0,0,0-.21-.31,2.53,2.53,0,0,1-.13-1v-.93Zm6.9,0a4.52,4.52,0,0,1-.22,1.86,1.13,1.13,0,0,1-.67.29l-.59.09a6.93,6.93,0,0,0,2.13.2h1.41c1.25,0,2.49,0,3.84,0a8.25,8.25,0,0,0,.63-2.1c-.91,1.52-1.58,1.72-3.38,1.69-1.29,0-1.59-.17-1.76-.36a3.39,3.39,0,0,1-.25-1.71V157c0-.48,0-.53.45-.53h.83a4.4,4.4,0,0,1,1.37.16c.19.08.31.25.4.56l.16.62a2.65,2.65,0,0,0,.22-1.52c0-.57,0-1.19,0-1.51l-.42.58c-.11.39-.27.54-.42.59a5.46,5.46,0,0,1-1.37.11h-.83c-.43,0-.45,0-.45-.53v-2.47a5.15,5.15,0,0,1,.07-1.13c0-.14.13-.2.64-.2h.82a6.43,6.43,0,0,1,1.46.12c.82.19,1.05.79,1.22,1.49a5.43,5.43,0,0,0,0-2,20,20,0,0,1-2,0h-2.74c-.61,0-1.12,0-1.79,0l.25.31a1,1,0,0,1,.69.36,4.36,4.36,0,0,1,.21,1.83v5.34Zm-162.27-8a5.25,5.25,0,0,0-5.25,5.48,5.07,5.07,0,0,0,5.22,5.26A5.15,5.15,0,0,0,73,156.45a5,5,0,0,0-5.12-5.31Z"/><path class="cls-5" d="M67.61,151.5c2.92,0,4,2.93,4,5.37,0,3.34-1.74,4.66-3.66,4.66-2.95,0-4-3.08-4-5.45,0-3.49,2-4.58,3.69-4.58Zm11.65,7.7a5.43,5.43,0,0,1-.19,1.86,1.17,1.17,0,0,1-.7.29l-.4.08a4.63,4.63,0,0,0,1.83.21c.7,0,1.34,0,2,0l-.54-.35a1.16,1.16,0,0,1-.68-.29,4.81,4.81,0,0,1-.21-1.84v-2c0-.46,0-.5.43-.5h.54a7,7,0,0,1,1.89.12.66.66,0,0,1,.42.54l.18.67a3,3,0,0,0,.21-1.5c0-.59,0-1.13.06-1.52l-.42.61c-.1.39-.24.48-.45.54a8.13,8.13,0,0,1-1.89.12h-.54c-.42,0-.43,0-.43-.54V153.1a4.83,4.83,0,0,1,.07-1.17c0-.14.21-.19.6-.19h.73a7.79,7.79,0,0,1,1.46.11c.83.19,1,.81,1.15,1.52a6,6,0,0,0,.22-2c-.22,0-1.1,0-2.05,0H79.8c-.58,0-1,0-1.59,0l.16.29c.37.08.58.16.7.34a5.2,5.2,0,0,1,.19,1.88v5.34Zm18.82,0a4.78,4.78,0,0,1-.21,1.88,1.15,1.15,0,0,1-.64.29l-.4.08a6.64,6.64,0,0,0,2,.2c.54,0,1.22.06,1.65.06,2.6,0,3.87-1.15,3.87-3a2.52,2.52,0,0,0-2-2.58c-.13,0-.34-.09-.24-.25a2.3,2.3,0,0,0,1.49-2.13,2.08,2.08,0,0,0-1.16-2,6.05,6.05,0,0,0-2.65-.42c-1.4,0-2.31.08-3,.12l.51.34a.77.77,0,0,1,.51.29c.07.09.21.37.21,2.13v5Zm1.13-2.47c0-.34,0-.39,1-.39,2.4,0,3,1.38,3,2.67a2.13,2.13,0,0,1-2.32,2.34,1.67,1.67,0,0,1-1.33-.42,3.32,3.32,0,0,1-.27-1.74v-2.47Zm0-4.33c0-.34,0-.45.1-.53s.43-.15.8-.15a2.07,2.07,0,0,1,2.29,2.22c0,1.54-.82,2-2.53,2-.62,0-.67,0-.67-.43v-3.15ZM114,157.51c.33,0,.37,0,.48.33l.71,2.31a3.29,3.29,0,0,1,.19.82c0,.23-.18.31-.49.37l-.43.09a3.85,3.85,0,0,0,1.65.2c.77,0,1.27,0,1.73,0l-.43-.33c-.61-.12-.77-.4-1.22-1.75l-1.95-5.9c-.49-1.51-.67-2.16-.76-2.42s-.34.22-.91.45a2.42,2.42,0,0,1-.24,1.18L110.84,157c-.72,1.92-1,2.75-1.32,3.45s-.43.75-.79.82l-.57.14a3.13,3.13,0,0,0,1.43.2c.61,0,1.07,0,1.47,0l-.54-.34c-.34-.06-.45-.16-.45-.33a2.41,2.41,0,0,1,.16-.76l.79-2.42c.09-.31.12-.33.48-.33Zm-2.26-.48c-.43,0-.43,0-.28-.4l.77-2.25c.27-.79.54-1.38.6-1.54a9.69,9.69,0,0,1,.4,1.18l.83,2.59c.13.4.15.42-.25.42Zm10.55-5.64a4.55,4.55,0,0,1-1.07-.11c-.31-.33-.39-.33-.46-.28a12.59,12.59,0,0,1-.57,2.13,4.65,4.65,0,0,0,1-1c.31-.34,1-.39,1.88-.39h.86c.45,0,.46,0,.46.6v6.83a4.8,4.8,0,0,1-.21,1.9,1,1,0,0,1-.65.28l-.66.08a6.17,6.17,0,0,0,2.1.2c.76,0,1.31,0,1.95,0l-.49-.31a1.12,1.12,0,0,1-.7-.29,4.85,4.85,0,0,1-.21-1.9v-6.83c0-.59,0-.6.46-.6h1a2.59,2.59,0,0,1,1.77.42,2.09,2.09,0,0,1,.4,1.13,17.82,17.82,0,0,0,.49-2.27c-.3.11-.42.23-.54.26a3.66,3.66,0,0,1-1,.09Zm16.5-.25a5.25,5.25,0,0,0-5.25,5.48,5.07,5.07,0,0,0,5.22,5.26,5.15,5.15,0,0,0,5.15-5.44,5,5,0,0,0-5.12-5.31Zm-.22.36c2.92,0,4,2.93,4,5.37,0,3.34-1.74,4.66-3.66,4.66-2.95,0-4-3.08-4-5.45,0-3.49,2-4.58,3.69-4.58Zm19.52,3.71a14.46,14.46,0,0,1,.22-3.2c.06-.16.34-.28.62-.34l.4-.08a3.42,3.42,0,0,0-1.47-.2c-.56,0-1.12,0-1.71,0l.43.31a1.07,1.07,0,0,1,.74.34,12.59,12.59,0,0,1,.28,3.21v3.4c0,.43,0,.74-.07.81-.39-.39-2-2.22-2.65-3l-1.47-1.69a16.65,16.65,0,0,1-2.52-3.35,5.47,5.47,0,0,1-.8,0c-.49,0-1,0-1.47,0l.28.31a2,2,0,0,1,.88.36c.42.39.4.93.4,2.55v3.26A14.49,14.49,0,0,1,150,161c-.06.16-.34.28-.62.34l-.4.08a3.38,3.38,0,0,0,1.47.2c.56,0,1.12,0,1.71,0l-.43-.31a1.07,1.07,0,0,1-.74-.34,12.68,12.68,0,0,1-.28-3.21v-3.51c0-.73,0-1,.15-1,.27.25.57.62,1.68,1.94l4,4.71a20.28,20.28,0,0,1,1.46,1.89,21.08,21.08,0,0,0,.13-2.89v-3.79Zm14.63,3.94a4.93,4.93,0,0,1-.21,1.91,1.13,1.13,0,0,1-.7.31l-.37.06a5.89,5.89,0,0,0,1.85.2c.6,0,1,0,1.74,0l-.27-.31a1.14,1.14,0,0,1-.7-.31,5,5,0,0,1-.21-1.91v-1.8c0-.36,0-.39.83-.39a1,1,0,0,1,1,.53c.48.73,1.1,1.79,1.49,2.36,1.06,1.57,1.77,2,3.14,2a3,3,0,0,0,.61-.08,3.59,3.59,0,0,1-1.13-.57,17.73,17.73,0,0,1-3-4.21.42.42,0,0,1-.06-.39,2.8,2.8,0,0,0,1.85-2.53,2.45,2.45,0,0,0-1.23-2.24,5.19,5.19,0,0,0-2.4-.45c-1.19,0-2.2,0-3.35.12l.33.28a.75.75,0,0,1,.65.37,4.89,4.89,0,0,1,.18,1.72v5.31Zm1.13-6.51c0-.56,0-.74.12-.81a2,2,0,0,1,.94-.14,2.33,2.33,0,0,1,2.38,2.53,2.3,2.3,0,0,1-.77,2,2.49,2.49,0,0,1-1.61.4c-.64,0-.92,0-1-.11a.67.67,0,0,1-.07-.4v-3.45Zm15.58-1.51a5.25,5.25,0,0,0-5.25,5.48,5.07,5.07,0,0,0,5.22,5.26,5.15,5.15,0,0,0,5.15-5.44,5,5,0,0,0-5.12-5.31Zm-.22.36c2.92,0,4,2.93,4,5.37,0,3.34-1.74,4.66-3.66,4.66-2.95,0-4-3.08-4-5.45,0-3.49,2-4.58,3.69-4.58Zm19.34,3.71a14.58,14.58,0,0,1,.22-3.2c.06-.16.34-.28.63-.34l.4-.08a3.4,3.4,0,0,0-1.47-.2c-.57,0-1.12,0-1.71,0l.43.31a1.08,1.08,0,0,1,.74.34,12.68,12.68,0,0,1,.28,3.21v2c0,2.36-.82,4.12-3.13,4.12s-3.1-1.71-3.1-4.1v-3.4A4.94,4.94,0,0,1,202,152a1.13,1.13,0,0,1,.7-.31l.37-.06a5.5,5.5,0,0,0-1.85-.2c-.61,0-1.09,0-1.79,0l.31.31a1.13,1.13,0,0,1,.7.31,4.89,4.89,0,0,1,.21,1.91v3.63c0,1.69.36,2.83,1.13,3.51a4,4,0,0,0,2.84.87,3.87,3.87,0,0,0,2.89-1.12,5.33,5.33,0,0,0,1-3.54v-2Zm14.67,3.93a2.48,2.48,0,0,1,.16-1.09c.08-.16.22-.22.49-.28l.33-.06a4.1,4.1,0,0,0-1.65-.2c-.76,0-1.62,0-2.05,0l.56.34c.45.08.76.17.87.33a2.7,2.7,0,0,1,.19,1.34v.67a1.87,1.87,0,0,1-.15,1,2.37,2.37,0,0,1-1.65.42c-3.11,0-4.6-2.39-4.6-5.45,0-2.42,1.28-4.58,4.23-4.58a3.14,3.14,0,0,1,2.56,1,3.9,3.9,0,0,1,.63,1.27,14.8,14.8,0,0,0,0-2.27,5.91,5.91,0,0,1-.94-.12,8.66,8.66,0,0,0-1.8-.2,6,6,0,0,0-4.7,1.83,5.49,5.49,0,0,0-1.34,3.65,5.28,5.28,0,0,0,1.36,3.51,6,6,0,0,0,4.52,1.75,9.81,9.81,0,0,0,2.57-.4,2.52,2.52,0,0,1,.73-.14.76.76,0,0,0-.21-.31,2.53,2.53,0,0,1-.13-1v-.93Zm6.9,0a4.52,4.52,0,0,1-.22,1.86,1.13,1.13,0,0,1-.67.29l-.59.09a6.93,6.93,0,0,0,2.13.2h1.41c1.25,0,2.49,0,3.84,0a8.25,8.25,0,0,0,.63-2.1c-.91,1.52-1.58,1.72-3.38,1.69-1.29,0-1.59-.17-1.76-.36a3.39,3.39,0,0,1-.25-1.71V157c0-.48,0-.53.45-.53h.83a4.4,4.4,0,0,1,1.37.16c.19.08.31.25.4.56l.16.62a2.65,2.65,0,0,0,.22-1.52c0-.57,0-1.19,0-1.51l-.42.58c-.11.39-.27.54-.42.59a5.46,5.46,0,0,1-1.37.11h-.83c-.43,0-.45,0-.45-.53v-2.47a5.15,5.15,0,0,1,.07-1.13c0-.14.13-.2.64-.2h.82a6.43,6.43,0,0,1,1.46.12c.82.19,1.05.79,1.22,1.49a5.43,5.43,0,0,0,0-2,20,20,0,0,1-2,0h-2.74c-.61,0-1.12,0-1.79,0l.25.31a1,1,0,0,1,.69.36,4.36,4.36,0,0,1,.21,1.83v5.34Zm-162.27-8a5.25,5.25,0,0,0-5.25,5.48,5.07,5.07,0,0,0,5.22,5.26A5.15,5.15,0,0,0,73,156.45a5,5,0,0,0-5.12-5.31Z"/></g></g></svg>