<svg xmlns="http://www.w3.org/2000/svg" viewBox="0 0 51 51">
    <path d="M22.61,16.64a5.08,5.08,0,0,0,.28.51c.09.14.23.28.33.42a4.25,4.25,0,0,0,.47.42,1.57,1.57,0,0,0,.56.28,2.3,2.3,0,0,0,.61.19,2.88,2.88,0,0,0,.61,0,2.67,2.67,0,0,0,.61,0,1.66,1.66,0,0,0,.51-.19h0a3.47,3.47,0,0,0,.56-.33,3,3,0,0,0,.42-.37l0,0a2.58,2.58,0,0,0,.33-.42,1.46,1.46,0,0,0,.23-.47s0,0,0-.09a3,3,0,0,0,.19-.61,2.66,2.66,0,0,0,0-.61,2.66,2.66,0,0,0,0-.61,4.34,4.34,0,0,0-.19-.61,2.64,2.64,0,0,0-.56-.84l-.09-.09a4,4,0,0,0-.47-.37l-.51-.28a2.63,2.63,0,0,0-.56-.19,2.85,2.85,0,0,0-.61,0,2.46,2.46,0,0,0-1.17.23h0a5,5,0,0,0-.51.28,4,4,0,0,0-.47.37,3,3,0,0,0-.37.42,5.07,5.07,0,0,0-.28.51,2.63,2.63,0,0,0-.19.56,2.86,2.86,0,0,0,0,.61,2.65,2.65,0,0,0,0,.61A4.22,4.22,0,0,0,22.61,16.64ZM29.09,33.7H28V22.28a1.2,1.2,0,0,0-1.21-1.21H21.91a1.2,1.2,0,0,0-1.21,1.21V24.8A1.2,1.2,0,0,0,21.91,26h1v7.74h-1A1.2,1.2,0,0,0,20.7,35v2.52a1.2,1.2,0,0,0,1.21,1.21h7.18a1.2,1.2,0,0,0,1.21-1.21V35A1.24,1.24,0,0,0,29.09,33.7ZM25.5,0A25.5,25.5,0,1,0,51,25.5,25.51,25.51,0,0,0,25.5,0Zm0,47.64A22.14,22.14,0,1,1,47.64,25.5,22.16,22.16,0,0,1,25.5,47.64Z"/>
</svg>