<svg xmlns="http://www.w3.org/2000/svg" viewBox="0 0 72.01 49.01">
    <path
            d="M47.44,20.79H1.85A1.72,1.72,0,0,0,.13,22.51V36.25A1.72,1.72,0,0,0,1.85,38H47.44a1.72,1.72,0,0,0,1.71-1.72V22.51A1.72,1.72,0,0,0,47.44,20.79Zm.28,15.46a.28.28,0,0,1-.28.28H1.85a.28.28,0,0,1-.28-.28V22.51a.28.28,0,0,1,.28-.28H47.44a.28.28,0,0,1,.28.28ZM1.85,17.45H66.61a1.85,1.85,0,0,0,1.85-1.86V1.86A1.85,1.85,0,0,0,66.61,0H1.85A1.85,1.85,0,0,0,0,1.86V15.59A1.85,1.85,0,0,0,1.85,17.45ZM1.7,1.86a.15.15,0,0,1,.14-.14H66.61a.15.15,0,0,1,.14.14V15.59a.15.15,0,0,1-.14.14H1.85a.15.15,0,0,1-.14-.14Zm9.4,25.22-1.68,1,0-2H7.62l0,2L6,27.05,5,28.7l1.72.94L5,30.6,6,32.23l1.68-1,0,2H9.46l0-2,1.68,1L12,30.6l-1.75-1L12,28.7Zm7.92,0-1.68,1,0-2H15.53l0,2-1.68-1L13,28.7l1.72.94L13,30.6l.94,1.63,1.68-1,0,2h1.85l0-2,1.68,1L20,30.6l-1.75-1L20,28.7Zm7.92,0-1.68,1,0-2H23.45l0,2-1.68-1-.94,1.65,1.72.94-1.72,1,.94,1.63,1.68-1,0,2H25.3l0-2,1.68,1,.94-1.65-1.75-1,1.75-.94Zm7.92,0-1.68,1,0-2H31.37l0,2-1.68-1-.94,1.65,1.72.94-1.72,1,.94,1.63,1.68-1,0,2h1.85l0-2,1.68,1,.94-1.65-1.75-1,1.75-.94Zm7.92,0-1.68,1,0-2H39.28l0,2-1.68-1-.94,1.65,1.72.94-1.72,1,.94,1.63,1.68-1,0,2h1.85l0-2,1.68,1,.94-1.65-1.75-1,1.75-.94ZM71.9,38.58,67.39,34.4a8.63,8.63,0,1,0-8,3.51L59.3,44a.33.33,0,0,0,.54.27l3.92-3.14,3.2,7.5a.61.61,0,0,0,.81.32l1.94-.84a.62.62,0,0,0,.32-.81l-3.21-7.52,4.89-.63A.34.34,0,0,0,71.9,38.58Zm-5.57-5.16-6.14-5.7a.33.33,0,0,0-.56.24l-.17,8.49a7.23,7.23,0,1,1,6.88-3ZM6.8,11.22a3.2,3.2,0,0,0,1.48.33,3.14,3.14,0,0,0,1.47-.33,2.29,2.29,0,0,0,1-.93,2.83,2.83,0,0,0,.34-1.41V5.25H9.45V8.88a1.33,1.33,0,0,1-.32.94,1.09,1.09,0,0,1-.84.35,1.16,1.16,0,0,1-.87-.35,1.29,1.29,0,0,1-.34-.93V5.25H5.47V8.88a2.77,2.77,0,0,0,.35,1.41A2.33,2.33,0,0,0,6.8,11.22Zm7.74-1a3,3,0,0,1-1.13-.26,3.87,3.87,0,0,1-1.1-.68l-.62,1.26a4.16,4.16,0,0,0,1.31.74,4.54,4.54,0,0,0,1.52.27,3.45,3.45,0,0,0,1.26-.22,2,2,0,0,0,.89-.66A1.72,1.72,0,0,0,17,9.6a1.58,1.58,0,0,0-.3-1A1.85,1.85,0,0,0,16,8a8.48,8.48,0,0,0-1.06-.37l-.65-.22a1.14,1.14,0,0,1-.37-.22.44.44,0,0,1-.15-.34.36.36,0,0,1,.17-.32.86.86,0,0,1,.47-.11,3.08,3.08,0,0,1,.93.19,5.37,5.37,0,0,1,1,.48L17,5.83a4.32,4.32,0,0,0-1.14-.51,4.66,4.66,0,0,0-1.32-.19,3.33,3.33,0,0,0-1.29.23,1.93,1.93,0,0,0-.86.67,1.71,1.71,0,0,0-.3,1,1.51,1.51,0,0,0,.29,1,1.85,1.85,0,0,0,.71.55,8,8,0,0,0,1,.36l.65.2a1.13,1.13,0,0,1,.39.22.46.46,0,0,1,.15.35.43.43,0,0,1-.21.39A1,1,0,0,1,14.54,10.21Zm8.21-.06H19.42V9h2.93V7.69H19.42V6.54h3.25V5.25H17.82v6.18h4.94Zm2.59-.42h1.19l.9,1.71h1.82L28,9.41a1.94,1.94,0,0,0,.82-.79,2.44,2.44,0,0,0,.28-1.2,2,2,0,0,0-.67-1.6,2.84,2.84,0,0,0-1.89-.57H23.74v6.18h1.61Zm0-3.18h1.17a1.09,1.09,0,0,1,.76.24.89.89,0,0,1,.27.69.92.92,0,0,1-.27.71,1.08,1.08,0,0,1-.76.25H25.34Zm9.28,5.83H29.49v.86h5.13Zm2.1-4.63,2.79,3.69h1.4V5.25H39.42V9l-2.8-3.72H35.22v6.18h1.5Zm6.83,2.6h2.66l.42,1.09h1.71L45.77,5.25H44.12l-2.64,6.18h1.65ZM44.9,6.9l.84,2.2H44Zm5.43.62,1.58,3.3h1l1.57-3.3v3.91h1.42V5.25H54.2L52.42,8.87,50.64,5.25H48.9v6.18h1.43Zm11.75,2.63H58.74V9h2.93V7.69H58.74V6.54H62V5.25H57.14v6.18h4.94Z"
            transform="translate(0)"/>
</svg>