<svg xmlns="http://www.w3.org/2000/svg" viewBox="0 0 103.06 96.98"><defs><style>.cls-1{fill:#359900;}</style></defs><title>records-icon</title><g id="Layer_2" data-name="Layer 2"><g id="Layer_1-2" data-name="Layer 1"><path class="cls-1" d="M102.53,37.14a2.16,2.16,0,0,0-1.66-.77H96.33V11.72a3.06,3.06,0,0,0-3-3.06H40.54L36.26,1.49A3,3,0,0,0,33.66,0H9.92a3.06,3.06,0,0,0-3,3.06V36.37H2.19A2.19,2.19,0,0,0,0,38.9L8.48,95.1A2.21,2.21,0,0,0,10.64,97H92.41a2.21,2.21,0,0,0,2.17-1.88L103,38.91a2.21,2.21,0,0,0-.5-1.77ZM10.32,3.47H33.43l4.27,7.17a3.06,3.06,0,0,0,2.61,1.49H92.89V36.37H91.17V29.44H89.45v-5.2H87.73V19.05H15.48v5.19H13.77v5.2H12v6.92H10.32ZM15.48,32.9H87.73v3.47H15.48Zm1.72-5.19H86v1.73H17.2Zm67.08-3.47H18.92V22.52H84.29Zm7,69.27H11.73L3.65,39.84H99.41Zm0,0"/></g></g></svg>