<svg xmlns="http://www.w3.org/2000/svg" viewBox="0 0 47 56"><defs><style>.cls-1{fill:none;}</style></defs><title>registration-icon</title><g id="Layer_2" data-name="Layer 2"><g id="Layer_1-2" data-name="Layer 1"><path class="cls-1" d="M10.22,13.92h18a1.8,1.8,0,0,0,1.8-1.79V7.6a1.8,1.8,0,0,0-1.8-1.79H24.88c0-.07,0-.14,0-.21a5.65,5.65,0,0,0-11.31,0c0,.07,0,.14,0,.21H10.22A1.8,1.8,0,0,0,8.41,7.6v4.53A1.8,1.8,0,0,0,10.22,13.92Zm9-12.62A1.52,1.52,0,1,1,17.7,2.83,1.53,1.53,0,0,1,19.24,1.3ZM32.71,19H5v.64H32.71Zm0,3.6H5v.64H32.71Zm0,3.6H5v.64H32.71Zm0,3.6H5v.64H32.71Zm0,3.6H5V34H32.71ZM5,37.59H32.71v-.64H5Zm3.27,8.78a34.16,34.16,0,0,0,1.32-3.22c.2-.58-.68-.92-1-.41A11.85,11.85,0,0,0,7.09,46.4a33,33,0,0,1-2.25,3.89c-.39.57.55,1.11.93.54q.86-1.27,1.58-2.61a1.52,1.52,0,0,0,.44.41,2.25,2.25,0,0,0,2.5-.38A20.91,20.91,0,0,0,12.86,46a14.6,14.6,0,0,1-.54,1.56L11.54,50a.54.54,0,0,0,.66.66c2.17-.75,3.76-4,6.36-2.53.93.53,1.28,1.7,2.3,2.11a1.62,1.62,0,0,0,2-.56c.39-.57-.54-1.11-.93-.54-.57.84-2.17-1.48-2.61-1.77a4,4,0,0,0-2.58-.65c-1.67.16-2.58,1.49-3.82,2.36.27-.84.54-1.69.8-2.54s.43-1.47-.2-2a.55.55,0,0,0-.76,0c-.56.58-1.13,1.13-1.73,1.67s-1.33,1.41-2,1.5q-.65.42-.91-.6l.08-.5C8.26,46.52,8.28,46.44,8.29,46.36ZM46.63,26.67a1.26,1.26,0,0,0-1.77,0L38.5,33V11.66a2.76,2.76,0,0,0-2.77-2.75H31.88v1.92h3.85a.83.83,0,0,1,.84.83V34.89l-5.71,5.66H5v.64H30.21l-4.28,4.24a22.66,22.66,0,0,0-1.75,3.42,21.8,21.8,0,0,0,3.53-1.67l8.86-8.78V53.25a.83.83,0,0,1-.84.83h-33a.83.83,0,0,1-.84-.83V11.66a.83.83,0,0,1,.84-.83H6.62V8.91H2.77A2.76,2.76,0,0,0,0,11.66v41.6A2.76,2.76,0,0,0,2.77,56h33a2.76,2.76,0,0,0,2.77-2.75V36.48l8.13-8.05A1.23,1.23,0,0,0,46.63,26.67Z" transform="translate(0 0)"/></g></g></svg>