<svg xmlns="http://www.w3.org/2000/svg" viewBox="0 0 51 55"><defs><style>.cls-1{fill:none;}</style></defs><title>scheulde-icon</title><g id="Layer_2" data-name="Layer 2"><g id="Layer_1-2" data-name="Layer 1"><path class="cls-1" d="M48,5.34H44V7.46h4a.92.92,0,0,1,.92.91V20.05H2.13V8.38A.92.92,0,0,1,3,7.46H7V5.34H3a3,3,0,0,0-3,3V52a3,3,0,0,0,3,3H48a3,3,0,0,0,3-3V8.38A3,3,0,0,0,48,5.34Zm0,47.54H3A.92.92,0,0,1,2.13,52V22.17H48.87V52A.92.92,0,0,1,48,52.88Z"/><path class="cls-1" d="M33.05,5.34H17.95V7.46h15.1Z"/><path class="cls-1" d="M10.43,34.19h4.13V30.07H10.43Z"/><path class="cls-1" d="M19.1,34.19h4.13V30.07H19.1Z"/><path class="cls-1" d="M27.77,34.19H31.9V30.07H27.77Z"/><path class="cls-1" d="M36.44,34.19h4.13V30.07H36.44Z"/><path class="cls-1" d="M10.43,43.61h4.13V39.49H10.43Z"/><path class="cls-1" d="M19.1,43.61h4.13V39.49H19.1Z"/><path class="cls-1" d="M27.77,43.61H31.9V39.49H27.77Z"/><path class="cls-1" d="M36.44,43.61h4.13V39.49H36.44Z"/><path class="cls-1" d="M12.52,14.61a4.11,4.11,0,0,0,4.11-4.1V4.1a4.11,4.11,0,0,0-8.22,0v6.41A4.11,4.11,0,0,0,12.52,14.61ZM10.44,4.1a2.08,2.08,0,0,1,4.16,0v6.41a2.08,2.08,0,0,1-4.16,0Z"/><path class="cls-1" d="M38.48,14.61a4.11,4.11,0,0,0,4.11-4.1V4.1a4.11,4.11,0,0,0-8.22,0v6.41A4.11,4.11,0,0,0,38.48,14.61ZM36.39,4.1a2.08,2.08,0,0,1,4.16,0v6.41a2.08,2.08,0,0,1-4.16,0Z"/></g></g></svg>